<svg xmlns="http://www.w3.org/2000/svg" width="92" height="93" fill="none"><path fill="#fff" d="M83.573 84.456v.7c0 2.497 1.737 4.013 4.021 4.013 2.565 0 4.406-1.89 4.406-4.234 0-2.368-1.876-4.258-4.277-4.258-1.562 0-2.88.77-3.567 1.866l1.585.91c.338-.536 1.073-.956 1.993-.956 1.376 0 2.401 1.014 2.401 2.45 0 1.388-.979 2.402-2.564 2.402-1.084 0-1.795-.478-2.086-1.26h2.18v-1.633h-4.092ZM92 90.726h-8.492v1.699H92v-1.699ZM9.746 1.192 9.207 0c-1.75.11-5.653 2.087-7.622 4.47C-.384 6.851.038 9.794.038 9.794c.281 1.986 1.834 4.114 4.257 4.445 2.422.33 4.576-.861 5.45-2.318.876-1.458 1.414-3.312 0-5.431-1.13-1.696-3.028-2.296-3.835-2.385.449-.75 1.844-2.384 3.836-2.914Z"/><path fill="#fff" fill-rule="evenodd" d="m68.206 92.425 15.302-12.63-2.014-2.15-4.295 3.224c-2.55-2.418-3.893-6.853-4.027-13.168l-1.074-45.55c-.134-4.031.94-7.659 2.953-11.018 1.477-2.284 3.893-5.24 7.517-8.6l-.268-.268c-5.772 1.343-10.739 4.568-15.168 9.674-8.591-5.912-17.585-8.868-26.98-8.868-6.678 0-12.589 1.606-17.681 4.87.447 1.52-.025 2.866-.694 3.98-.875 1.458-3.029 2.65-5.451 2.319a4.63 4.63 0 0 1-.85-.2c-5.206 5.9-7.808 12.366-7.808 19.398l.268 2.956c.671 7.39 5.37 15.183 14.229 23.38L10.218 77.51C7.131 82.213 5.52 85.84 5.52 88.662c0 2.285.94 3.494 2.953 3.494 2.148 0 3.222-.94 3.222-2.822 0-.622-.356-1.708-.701-2.76-.326-.994-.642-1.959-.642-2.48 0-2.15 1.745-3.897 3.759-3.897 1.476 0 3.355.672 5.637 1.881L38.81 92.156 58.407 77.51c1.61 6.853 4.832 11.824 9.799 14.915Zm-10.202-69.2v29.561H31.561l9.273-13.677c.698.354 1.476.63 2.291.713 1.845.189 3.812.18 5.465-.665 3.133-1.442 4.062-5.61 4.062-5.61s-1.527 2.425-4.063 2.615c-2.021 0-3.6-1.166-4.455-1.92L54.245 19.33h1.074l2.685 3.897Zm-21.208-9.674c4.698 0 9.53 1.075 14.63 3.225l-3.22 4.837-6.578 9.54-.335.492c-1.054-.748-2.42-1.434-3.927-1.49-2.614-.094-4.225.638-5.661 2.124-1.255 1.298-2.69 4.438-2.69 4.438s1.937-2.536 4.126-2.536c2.599.096 3.213 1.284 4.63 2.583l.02.022-14.016 20.569c-7.92-6.315-11.812-13.302-11.812-21.096 0-6.718 2.55-12.227 7.517-16.527 4.698-4.165 10.47-6.18 17.316-6.18ZM58.54 62.192v10.75l-11.275 9.136-27.383-12.63 4.966-7.256h33.692Z" clip-rule="evenodd"/><path fill="#fff" d="M21.777 1.192 21.238 0c-1.75.11-5.654 2.087-7.622 4.47-1.97 2.382-1.547 5.325-1.547 5.325.247 1.743 1.473 3.595 3.406 4.246a41.56 41.56 0 0 1 1.455-1.565 31.56 31.56 0 0 1 5.541-4.535 5.323 5.323 0 0 0-.694-1.45c-1.131-1.696-3.029-2.296-3.836-2.385.448-.75 1.844-2.384 3.836-2.914Z"/></svg>