<svg xmlns="http://www.w3.org/2000/svg" width="42" height="38" fill="none"><path fill="#000" d="M32.534 16.72a10.42 10.42 0 0 0-.284-4.621 10.682 10.682 0 0 0-2.266-4.083 11.184 11.184 0 0 0-3.832-2.794 11.575 11.575 0 0 0-4.695-.992c-1.62 0-3.222.339-4.694.992a11.184 11.184 0 0 0-3.832 2.794 10.682 10.682 0 0 0-2.266 4.083 10.42 10.42 0 0 0-.284 4.621 11.297 11.297 0 0 0-4.245 2.457 10.775 10.775 0 0 0-2.732 3.98 10.432 10.432 0 0 0-.683 4.726c.14 1.604.652 3.158 1.497 4.547a10.972 10.972 0 0 0 3.386 3.482 11.462 11.462 0 0 0 4.612 1.737c1.653.24 3.341.121 4.94-.349a11.32 11.32 0 0 0 4.301-2.364 11.32 11.32 0 0 0 4.3 2.355c1.597.467 3.283.584 4.933.343a11.456 11.456 0 0 0 4.606-1.737 10.968 10.968 0 0 0 3.38-3.478 10.515 10.515 0 0 0 1.497-4.542 10.427 10.427 0 0 0-.68-4.72 10.77 10.77 0 0 0-2.723-3.977 11.292 11.292 0 0 0-4.236-2.46Zm-20.822-1.601c-.01-1.29.257-2.57.784-3.757a9.393 9.393 0 0 1 2.277-3.142 9.815 9.815 0 0 1 3.39-2.004 10.088 10.088 0 0 1 7.772.498 9.684 9.684 0 0 1 3.086 2.418 9.27 9.27 0 0 1 1.825 3.405 9.054 9.054 0 0 1 .262 3.823 11.51 11.51 0 0 0-5.152.207 11.221 11.221 0 0 0-4.499 2.426 11.22 11.22 0 0 0-4.499-2.426 11.51 11.51 0 0 0-5.151-.207 9.116 9.116 0 0 1-.095-1.241ZM23.66 26.964a9.13 9.13 0 0 1-2.203 5.936 9.13 9.13 0 0 1-2.202-5.936 8.88 8.88 0 0 1 .095-1.24c1.392.262 2.823.262 4.215 0 .06.41.092.825.095 1.24Zm-2.203-2.458a10.125 10.125 0 0 1-1.807-.168 9.229 9.229 0 0 1 1.807-3.31 9.227 9.227 0 0 1 1.808 3.31c-.596.11-1.201.166-1.808.168Zm-3.224-.54a9.816 9.816 0 0 1-3.844-2.399 9.337 9.337 0 0 1-2.286-3.822 9.997 9.997 0 0 1 4.44.18 9.749 9.749 0 0 1 3.886 2.08 10.697 10.697 0 0 0-2.196 3.961Zm4.247-3.96a9.75 9.75 0 0 1 3.885-2.08 9.997 9.997 0 0 1 4.442-.181 9.339 9.339 0 0 1-2.287 3.822 9.819 9.819 0 0 1-3.844 2.4 10.68 10.68 0 0 0-2.196-3.961ZM4.17 26.963a9.161 9.161 0 0 1 1.802-5.423 9.725 9.725 0 0 1 4.723-3.424 10.753 10.753 0 0 0 2.691 4.48 11.317 11.317 0 0 0 4.54 2.767 10.2 10.2 0 0 0 .277 4.546 10.457 10.457 0 0 0 2.235 4.014 9.886 9.886 0 0 1-4.99 2.31c-1.862.29-3.77.05-5.493-.686a9.639 9.639 0 0 1-4.213-3.463 9.123 9.123 0 0 1-1.568-5.117l-.004-.003ZM29 36.353a9.902 9.902 0 0 1-6.519-2.43 10.458 10.458 0 0 0 2.24-4.013c.435-1.478.53-3.03.28-4.547a11.315 11.315 0 0 0 4.533-2.77 10.753 10.753 0 0 0 2.686-4.477c2.175.73 4.01 2.179 5.182 4.089a9.091 9.091 0 0 1 1.215 6.345c-.387 2.187-1.565 4.171-3.327 5.6a9.965 9.965 0 0 1-6.294 2.207l.004-.004Z"/></svg>