<svg xmlns="http://www.w3.org/2000/svg" width="47" height="42" fill="none"><path fill="#fff" d="M36.407 18.15a11.948 11.948 0 0 0-.318-5.235 12.146 12.146 0 0 0-2.536-4.626 12.523 12.523 0 0 0-4.288-3.165A12.817 12.817 0 0 0 24.012 4c-1.814 0-3.606.383-5.253 1.124-1.648.74-3.11 1.82-4.289 3.165a12.145 12.145 0 0 0-2.536 4.626 11.946 11.946 0 0 0-.317 5.236 12.607 12.607 0 0 0-4.751 2.784 12.213 12.213 0 0 0-3.056 4.51 11.955 11.955 0 0 0 .91 10.505 12.36 12.36 0 0 0 3.789 3.946 12.728 12.728 0 0 0 5.162 1.967c1.85.272 3.738.138 5.527-.395a12.624 12.624 0 0 0 4.814-2.679 12.622 12.622 0 0 0 4.81 2.669c1.788.529 3.675.662 5.522.388a12.724 12.724 0 0 0 5.154-1.968 12.357 12.357 0 0 0 3.783-3.94 11.95 11.95 0 0 0 .914-10.493 12.208 12.208 0 0 0-3.048-4.507 12.601 12.601 0 0 0-4.74-2.787Zm-23.301-1.813c-.01-1.463.288-2.912.877-4.257a10.638 10.638 0 0 1 2.549-3.56 10.956 10.956 0 0 1 3.794-2.27 11.161 11.161 0 0 1 8.697.564 10.857 10.857 0 0 1 3.453 2.74 10.547 10.547 0 0 1 2.043 3.857c.401 1.41.5 2.884.292 4.332a12.727 12.727 0 0 0-5.765.234 12.51 12.51 0 0 0-5.034 2.749 12.509 12.509 0 0 0-5.035-2.749 12.727 12.727 0 0 0-5.764-.234 10.445 10.445 0 0 1-.107-1.406Zm13.37 13.42a10.422 10.422 0 0 1-2.464 6.726 10.422 10.422 0 0 1-2.465-6.726c.003-.47.038-.94.106-1.405 1.558.297 3.16.297 4.717 0 .068.465.104.934.107 1.405Zm-2.464-2.785a11.193 11.193 0 0 1-2.023-.19 10.494 10.494 0 0 1 2.023-3.75 10.493 10.493 0 0 1 2.023 3.75c-.667.124-1.344.188-2.023.19Zm-3.609-.611a10.966 10.966 0 0 1-4.3-2.718 10.605 10.605 0 0 1-2.56-4.331c1.65-.31 3.352-.24 4.97.204a10.868 10.868 0 0 1 4.348 2.358 12.162 12.162 0 0 0-2.458 4.487Zm4.754-4.487a10.868 10.868 0 0 1 4.347-2.358 11.052 11.052 0 0 1 4.97-.204 10.608 10.608 0 0 1-2.56 4.33 10.969 10.969 0 0 1-4.3 2.719 12.143 12.143 0 0 0-2.457-4.487Zm-20.49 7.883c.004-2.203.708-4.35 2.016-6.145a10.891 10.891 0 0 1 5.286-3.88 12.214 12.214 0 0 0 3.01 5.076 12.638 12.638 0 0 0 5.081 3.135 11.694 11.694 0 0 0 .31 5.151 11.89 11.89 0 0 0 2.501 4.547 11 11 0 0 1-5.585 2.619 11.137 11.137 0 0 1-6.146-.778 10.818 10.818 0 0 1-4.714-3.924 10.428 10.428 0 0 1-1.755-5.797l-.004-.004ZM32.45 40.395a11 11 0 0 1-7.294-2.754 11.89 11.89 0 0 0 2.506-4.546c.486-1.675.593-3.433.312-5.152a12.638 12.638 0 0 0 5.074-3.138 12.213 12.213 0 0 0 3.006-5.072 10.844 10.844 0 0 1 5.798 4.632 10.409 10.409 0 0 1 1.36 7.19A10.572 10.572 0 0 1 39.49 37.9a11.067 11.067 0 0 1-7.044 2.5l.005-.005Z"/></svg>