<svg xmlns="http://www.w3.org/2000/svg" width="111" height="124" fill="none"><g clip-path="url(#a)"><path fill="#fff" d="M0 124v-.871l12.176-3.482L45.706 4.353 35.646.87V0h40.59C97.058 0 111 10.971 111 31c0 21.248-15.53 35.877-43.236 35.877-7.411 0-11.647-1.046-14.471-1.743V63.74c2.47.698 7.06 1.395 12.179 1.395 20.646 0 33.176-11.496 33.176-32.744 0-20.374-11.647-30.475-25.943-30.475h-13.94l-34.237 117.73 11.648 3.482V124H0Z"/></g><defs><clipPath id="a"><path fill="#fff" d="M0 0h111v124H0z"/></clipPath></defs></svg>