<svg xmlns="http://www.w3.org/2000/svg" width="165" height="124" fill="none"><path fill="url(#a)" d="M130.623 48.22h-5.635l-11.69-32.24a13.824 13.824 0 0 0-5.035-6.58 13.782 13.782 0 0 0-7.886-2.513H89.373c-3.78 0-6.873 3.1-6.873 6.893 0 3.787 3.094 6.887 6.873 6.887h11.004l10.034 27.553H77.344l-2.475-6.887h.618c3.78 0 6.874-3.1 6.874-6.887 0-3.792-3.094-6.892-6.874-6.892H55.002c-3.785 0-6.879 3.1-6.879 6.892 0 3.787 3.094 6.887 6.879 6.887h5.156L72.667 75.78h-4.605c-3.026-15.366-15.88-26.733-31.968-27.487C16.846 47.327 0 63.38 0 82.667c0 19.287 15.123 34.446 34.377 34.446 16.912 0 30.592-11.646 33.685-27.56h28.876c3.026 15.367 15.881 26.733 31.968 27.488C148.155 117.94 165 101.954 165 82.6c0-19.22-15.123-34.38-34.377-34.38ZM41.25 89.555h12.514C50.877 98.027 42.761 103.886 33 103.266c-10.245-.62-18.769-9.3-19.248-19.633C13.267 71.573 22.482 62 34.377 62c4.267-.04 8.439 1.27 11.92 3.744a20.312 20.312 0 0 1 7.467 10.035H41.25c-3.78 0-6.873 3.1-6.873 6.888 0 3.787 3.093 6.887 6.873 6.887Zm55.688-13.775H87.31L82.294 62h20.831a32.64 32.64 0 0 0-6.188 13.78Zm32.86 27.554c-10.586-.413-19.521-9.44-19.8-20.114-.134-6.613 2.682-12.4 7.219-16.259l4.264 11.713a6.855 6.855 0 0 0 8.802 4.133 6.859 6.859 0 0 0 3.891-3.55 6.886 6.886 0 0 0 .234-5.27l-4.331-11.919.067-.067a20.376 20.376 0 0 1 14.961 5.813 20.48 20.48 0 0 1 6.143 14.854c0 11.847-9.487 21.08-21.45 20.666Z"/><defs><linearGradient id="a" x1="82.5" x2="82.5" y1="6.887" y2="117.113" gradientUnits="userSpaceOnUse"><stop stop-color="#FFBF00"/><stop offset="1" stop-color="#F2A50C"/></linearGradient></defs></svg>