<svg xmlns="http://www.w3.org/2000/svg" width="121" height="126" fill="none"><g clip-path="url(#a)"><mask id="b" width="121" height="126" x="0" y="0" maskUnits="userSpaceOnUse" style="mask-type:luminance"><path fill="#fff" d="M0 0h121v126H0V0Z"/></mask><g fill="#000" mask="url(#b)"><path d="M77.573.466c-.934.359-1.112.439-1.248.573l-.16.152-1.118.237c-1.173.252-1.774.344-2.67.382l-.533.034-1.074-.47a19.016 19.016 0 0 1-1.29-.603c-.207-.122-.253-.133-.54-.133-.378 0-.881.152-1.52.473a2.71 2.71 0 0 0-.896.687l-.48.478-1.83-.046-1.835-.042-.46-.279a6.755 6.755 0 0 0-3.14-.955 4.425 4.425 0 0 1-.809-.106 1.563 1.563 0 0 0-.423-.065.874.874 0 0 0-.518.114c-.416.206-.616.435-.945 1.088-.227.443-.303.562-.356.546a5.27 5.27 0 0 0-2.288-.065c-.302.088-.328.104-.672.443l-.364.356-1.758-.157a17.586 17.586 0 0 1-2.064-.248 3.109 3.109 0 0 0-1.248-.038c-.49.223-.97.47-1.437.736 0 .004.019.214.053.463l.053.488c0 .012.382.153.847.306l.84.282h.892l.007.943.015.94.447-.585.453-.588-.124-.328a3.962 3.962 0 0 1-.122-.355c0-.015.118-.027.265-.027h.269l.253.71c.086.247.18.492.28.733.011.016.177-.324.363-.76l.34-.782h.586l.106.431c.06.237.114.436.121.443.075-.16.138-.326.19-.496.09-.286.177-.52.184-.52a21.875 21.875 0 0 1 2.504-.259l1.194-.057.75.343c.408.191.763.36.786.378.15.119.204 1.299.08 1.833l-.065.306-.514.362a8.735 8.735 0 0 1-.534.363c-.011 0-.329-.26-.707-.573-.378-.317-.684-.572-.696-.565 0 .004.137.416.31.917.175.492.318.916.318.927 0 .031-.567.367-.612.367a.903.903 0 0 1-.023-.267v-.268l-.688-.695-.692-.69.295.97c.159.534.295.992.295 1.011 0 .038-.473.32-.492.294a95.162 95.162 0 0 0-1.475-1.707c-.01 0-.019.313-.019.695v.699h.636v.699l-.299.149-.31.145c-.008 0-.238-.474-.522-1.054a18.039 18.039 0 0 0-.522-1.039c-.011 0 .015.573.046 1.26l.064 1.245-.106.115c-.06.06-.125.099-.14.087a9.63 9.63 0 0 1-.469-.553l-.438-.535-.114-.508-.113-.511-.027.26a28.99 28.99 0 0 0-.128 1.825c.011.007.204.068.423.13.227.06.409.121.416.13.012.007-.238.129-.556.278l-.574.26-.231-.245c-.128-.137-.446-.473-.7-.756a11.318 11.318 0 0 0-.483-.508c.05.114.11.224.177.329l.5.863.31.534-.084.264a2.374 2.374 0 0 0 .08 1.66c.113.268.136.298.268.337.113.038.174.034.234 0 .167-.092.205-.268.205-.978v-.657l.348.268c.627.496 1.36.851 1.77.84.107-.001.214-.01.32-.027.137-.023.163-.046.216-.18.042-.122.045-.168.008-.24-.087-.16-.416-.37-.719-.462l-.28-.084v-.191c0-.29.25-.607.602-.752.605-.268 1.52-.245 3.577.076.964.145 1.127.183 2.847.672l1.91.535c.053.019-.057-.115-.288-.352l-.378-.381-.885-.123-.88-.122-1.177-.763-1.172-.764.908-.038c.903-.03.926-.03 1.822.091.756.107 1.036.165 1.66.344.688.206.802.252 1.346.561.172.11.353.205.54.283-.03-.034-.91-.74-1.954-1.58-1.04-.84-1.89-1.528-1.88-1.54.008-.007.598.023 1.317.07l1.308.075.276.275c.363.352.741.627 1.456 1.054.733.436 1.134.588 1.777.695.56.092 1.032.141 1.032.115 0-.012-.227-.226-.503-.466a12.61 12.61 0 0 1-2.03-2.241c-.39-.615-.537-.898-.613-1.196l-.06-.225.317.248 2.25 1.745 1.929 1.49.011 1.458.007 1.45.496.497.495.497v.82l-.771.955-.775.947v1.184l-.813.473-.813.477v1.05l-.851.68-.855.68h-2.578v1.779l-.284.282-.291.287-1.566-.397a49.737 49.737 0 0 0-1.573-.382c.004.083.013.166.027.248.072.42.049.764-.08 1.222-.17.603-.268.802-.582 1.134a2.132 2.132 0 0 1-1.815.676 1.503 1.503 0 0 1-.98-.348 1.558 1.558 0 0 0-.271-.183c0 .008-.042.237-.099.504a8.649 8.649 0 0 1-.87 2.585c-.18.312-.405.596-.669.84a2.942 2.942 0 0 1-.824.668 7.697 7.697 0 0 1-1.134.485c-.004 0-.012-.752-.012-1.68v-1.669l.409.218.404.218.02.347.018.351.45.329.442.332v-2.78l-.298-.695-.292-.695-.102-1.962a76.326 76.326 0 0 1-.087-1.978c.012-.011.076.061.152.153.575.714 1.229 2.092 1.565 3.299l.182.637.041.134.178-.496c.257-.73.329-1.08.329-1.688 0-1.65-.586-3.211-1.8-4.81l-.355-.467h-.723L47.83 16.11c-.945-.955-1.713-1.734-1.694-1.734l.424-.057.397-.061 1.058.691c.586.382 1.067.687 1.074.684a5.061 5.061 0 0 0-.438-.936 3.614 3.614 0 0 0-.76-.962 4.978 4.978 0 0 0-2.364-1.329 2.548 2.548 0 0 0-.84-.099H44.2l-.556-.557-.552-.558h1.706l-.518-.523a6.179 6.179 0 0 0-1.097-.913l-.579-.393-.843.218-.843.225-1.063-.256a13.577 13.577 0 0 1-1.066-.267c0-.015.454-.294 1.01-.622.556-.325 1.002-.6.994-.604a23.57 23.57 0 0 0-1.096-.19l-1.078-.176-.635.443-.636.443-.31-.157a1.614 1.614 0 0 1-.313-.176c0-.011.128-.149.283-.297.964-.955 2.477-2.772 2.995-3.597.314-.5.567-1.337.567-1.852V2.25l-.166.32A9.967 9.967 0 0 1 38.84 4.62c-.802.767-2.099 1.47-4.409 2.371l-1.006.393-.102.203a6.3 6.3 0 0 1-1.6 1.901c-1.035.813-2.676 1.749-5.63 3.204l-1.648.82c-.004 0 .045.447.113.982.076.676.102.981.076.992-.44.202-.86.444-1.255.722a19.294 19.294 0 0 0-2.163 1.848l-.454.458h-1.452l-.526.459a7.692 7.692 0 0 0-1.879 2.21l-.246.413.16.225.302.427.15.21h1.162l.355.49c.397.541 1.017 1.175 1.365 1.397.256.156.53.28.817.366.004-.004-.257-.63-.586-1.386-.203-.462-.4-.927-.594-1.393 0-.012.114-.088.25-.172l.329-.203c.075-.05.094-.038.253.191l.454.65.276.396.09-.274a2.35 2.35 0 0 0-.098-1.581l-.106-.191.337-.34c.11-.121.23-.234.36-.336.01 0 .048.13.071.287.098.557.54 1.477.858 1.783l.186.179-.023-.199c-.015-.114-.06-.61-.106-1.114-.03-.367-.065-.734-.102-1.1l-.019-.183.163-.027c.143-.027.181-.015.34.114.234.18.374.401.51.821.06.184.121.344.137.363.132-.192.24-.4.325-.618l.302-.646.14-.011a.645.645 0 0 0 .151-.023 49.1 49.1 0 0 1 .155-1.203c0-.007.19-.019.424-.019h.427l.204.206.208.203-.15-.718-.148-.718.518-.24.521-.245h1.131l-.465.65a26.568 26.568 0 0 1-3.486 3.932 73.88 73.88 0 0 0-1.895 1.997l-1.376 1.504h-2.5l-.695-.382-.692-.389-.552-.909-.556-.909-.144-1.244a18.87 18.87 0 0 0-.174-1.275c-.146.363-.274.734-.382 1.11l-.363 1.138.794 1.218c.432.669.783 1.222.776 1.23-.012.007-.53-.038-1.161-.103a31.117 31.117 0 0 0-1.161-.103c.34.719.816 1.364 1.399 1.901.272.203.862.42 1.369.497.94.11 1.89-.039 2.753-.432l.48-.202.85-.848c.783-.775.9-.878 1.434-1.222 1.172-.763 1.815-1.31 2.189-1.852.136-.202.469-.492 1.792-1.588l1.819-1.5.19-.165-.024.222c-.075.569-.434 1.497-.88 2.256-.458.78-1.192 1.879-1.256 1.879l-.995-.057c-.32-.023-.642-.04-.964-.05.18.132.369.253.564.363l.578.343-.264.508c-.096.18-.193.36-.292.538a20.705 20.705 0 0 1-1.569-.072c-.85-.05-1.55-.092-1.558-.084.116.25.272.478.462.676.11.114.306.252.48.343.43.218.786.28 1.595.28.522 0 .67.014.655.049l-.19.649c-.059.216-.12.43-.185.645-.015.038.083.05.424.05h.439l.007-.684.011-.687.477.695c.264.382.491.706.499.725.418-.114.828-.26 1.225-.435a5.128 5.128 0 0 0-.446-.481l-.469-.47.064-.893c.02-.3.044-.599.072-.897l3.021-1.413 3.025-1.413a1.68 1.68 0 0 0-.295-.114c-.567-.191-1.77-.24-2.911-.123-.204.021-.408.04-.613.054-.019 0 .39-.168.912-.37 1.928-.745 3.3-1.402 4.102-1.948l.409-.286-.587-.03c-1.569-.08-2.25-.207-3.047-.558l-.314-.141.215-.042c2.031-.377 4.081-.637 6.141-.78.507-.03.93-.06.938-.076a59.19 59.19 0 0 0-1.815-1.164c-1.403-.89-1.804-1.157-1.75-1.18.037-.015.752-.21 1.58-.428l1.57-.423c.052-.012.392.393 1.307 1.561l1.27 1.611c.012.023.356.077.768.115.416.046.764.1.78.115.037.11.066.221.086.336.136.63.552 1.256 1.23 1.844l.325.279.347 1.195c.352 1.183.356 1.19.284 1.31-.37.648-.473.927-.503 1.393l-.008.16-.25-.351a8.892 8.892 0 0 0-.26-.344c-.363.086-.724.183-1.081.29-.008.008.344.29.794.63l.805.611.121.36c.178.545.223.916.193 1.771l-.019.745-.382.904c-.404.959-.503 1.31-.556 1.99l-.03.359-.624 1.076c-.794 1.371-.832 1.451-.832 1.673 0 .24.121.542.333.817.09.122.28.4.416.618.136.222.26.409.268.416.008.012.114-.076.235-.198.143-.141.215-.191.2-.138a9.084 9.084 0 0 0-.087.44c-.03.188-.065.377-.102.565l-.038.206-.68-.561-.68-.562.026.176c.075.546.113 1.436.094 2.096-.023.84-.072 1.1-.34 1.81l-.16.416.1.409.094.427c0 .077-.938-.24-1.483-.504-.937-.454-.877-.4-1.41-1.233-.162-.242-.317-.49-.465-.74.004-.005.616.106 1.357.247.738.138 1.35.245 1.354.237a25.214 25.214 0 0 0-.499-1.787c-.751-.156-1.505-.299-2.261-.427a103.077 103.077 0 0 1-2.242-.405 64.453 64.453 0 0 1-.813-1.604c0-.007.627-.019 1.387-.019.764 0 1.388-.011 1.388-.023 0-.019-1.02-1.81-1.047-1.84 0-.008-.93.088-2.057.214l-2.046.217-.855-.584a15.127 15.127 0 0 1-.843-.603c.008-.008.68-.084 1.498-.172.816-.088 1.561-.164 1.66-.183l.174-.023-.492-.496-.492-.49h-2.499l-.832.398-.84.4-1.304-.473-1.304-.477 1.108-.359 2.189-.71c.593-.19 1.074-.351 1.066-.363-.753-.06-1.507-.11-2.261-.152l-2.25-.138-1.025.86-1.028.854-1.637.134c-.9.076-1.638.138-1.645.134-.004-.004.847-.397 1.894-.867 1.044-.47 1.898-.863 1.898-.878a6.194 6.194 0 0 0-.404-.42l-.409-.409-1.399.218-1.399.221-.366.283c-.855.664-1.34 1.26-1.672 2.046l-.181.432-.843.328-.908.355c-.068.023-.072-.034-.072-.801v-.837l1.513-.897 1.505-.893-1.188-.012-1.195-.007-2.578 2.348-2.58 2.348h-.597l-.242.382c-.072.129-.157.25-.253.363-.035-.288-.06-.578-.076-.867l-.06-.852.892-.897c.492-.496.893-.916.893-.935-.096-.202-.201-.4-.314-.592l-.306-.554.665-.81.67-.809.098-1.172.105-1.184-.726-1.206c-.235-.407-.48-.808-.733-1.203-.008 0-.057.71-.114 1.566l-.102 1.565-.442.94-.446.935-.257.183a5.378 5.378 0 0 0-1.513 1.764c-.605 1.035-.824 1.604-1.403 3.616l-.302 1.046-.492.638c-.858 1.1-1.478 1.974-1.917 2.7-.446.732-1.448 2.573-1.565 2.859-.1.4-.141.813-.125 1.226.045.366.215.954.378 1.298l.163.347-.284.53c-.5.925-.907 2.307-1.07 3.67l-.08.68c0 .008-.196.145-.434.31l-.431.293-.027.53c-.064 1.17.076 2.185.397 2.94.098.238.185.436.193.44.008.008.314-.03.68-.088l.674-.095.518.519.514.52.605-.169c.333-.095.605-.18.605-.194 0-.02-.488-.37-1.074-.798a14.227 14.227 0 0 1-1.051-.787c.119-.065.241-.122.367-.172l.34-.145.461.218.458.214-.662-.669-.658-.672.087-.229c.03-.084.065-.165.106-.244.011-.012.34.038.73.114.39.077.718.134.718.13-.209-.235-.427-.462-.654-.68l-.67-.675.182-.302c.099-.168.2-.324.223-.351.03-.03.152.038.48.267.243.172.44.306.447.298a5.011 5.011 0 0 0-.356-.542 5.621 5.621 0 0 1-.363-.546c.06-.12.123-.239.19-.355l.189-.333.124.08c.59.36.92.554.93.547-.115-.27-.237-.538-.366-.802a9.875 9.875 0 0 1-.367-.802c.13.005.258.02.386.046l.408.06c.028-.124.037-.253.026-.38v-.375h.16c.086 0 .158 0 .158.008l-.197 3.077-.2 3.074c0 .007.178.011.393.011h.394l.022-.428c.015-.236.065-1.233.106-2.214l.08-1.787.162-.24c.145-.247.354-.448.605-.58l.163-.077.227.183.238.18-.45.446-.454.458h1.21v.356c0 .34 0 .358-.087.381-.18.034-.36.066-.54.096a5.04 5.04 0 0 0-.466.091c.209.116.424.22.643.313.36.157.662.302.67.314.007.011-.352.206-.795.439-.446.229-.813.427-.813.443 0 .011.227.087.51.168l.89.267.385.122v.775l-.522.172a6.61 6.61 0 0 0-.56.198c-.014.016.303.123.715.241.412.115.768.225.802.24.034.02-.011.054-.14.104a3.387 3.387 0 0 0-1.172.897c-.076.114-.076.114-.458.114l-.39.004.179.16c.215.192.529.363.85.455.257.076.462.065 1.006-.065a1.978 1.978 0 0 1 1.622.23c.197.125.223.133.586.133.719 0 1.362-.264 2.194-.886l.378-.286-1.18-.016-1.176-.007.42-.615c.234-.344.416-.618.404-.618a8.856 8.856 0 0 1-1.225-.29c-.015-.024-.193-.321-.4-.65l-.375-.595.129-.298c.071-.164.223-.458.34-.657.775-1.321 1.52-2.283 2.847-3.68.405-.425.711-.764.68-.753-.033.008-.574.195-1.202.413l-1.145.389-.636.79c-.21.269-.427.532-.65.79-.011 0 .424-.667 2.136-3.271l.859-1.31-.265-.153-.265-.16-1.285 1.283-1.274 1.283v-1.715l2.866-1.68 2.862-1.687.287-.466c.16-.256.28-.466.273-.474-.008-.007-.79.252-1.74.58l-1.728.596-1.595.065c-.878.03-1.604.058-1.611.05.202-.146.412-.28.628-.405l.639-.382h2.136l1.278-1.088 1.278-1.088.87.408.87.409.015-.29.01-.287 1.022-.458 1.028-.47 1.082-.118 1.074-.122 1.036.962 1.032.966.843-.427.843-.42.401.553.401.554v.619c0 .607 0 .618.09.637l.863.199c.423.095 1.006.252 1.285.34.613.19 1.426.61 1.804.923.181.127.318.31.39.52.208.496.177.714-.19 1.336a3.657 3.657 0 0 1-.552.691l-.34.352h2.231l.443.706.45.702-.106.6-.125.706c-.023.115-.019.115.178.115h.204v.523l-.008.53-.189.318-.197.32.371.012.374.011.855.932.855.931v1.482l-.45.546c-.246.298-.636.802-.87 1.11l-.431.574h1.478l1.036.9 1.044.91.148.397c.264.71.397 1.733.31 2.405-.013.116-.032.23-.057.344a2.528 2.528 0 0 1-.363-.038 3.704 3.704 0 0 0-.367-.046c-.008 0 .121.187.276.404.378.527.643.955.798 1.306.382.84.752 2.333.798 3.246l.03.485.174.103c.56.328.855 1.168 1.047 2.99l.084.786.15.16c.31.332.534.802.72 1.508l.094.397.211.07c.398.137.89.557 1.279 1.091.15.218.363.436.642.665.541.458.776.714.946 1.05.125.252.136.301.136.637-.004.52 0 .52-.454.344-.676-.3-1.33-.65-1.955-1.046a22.873 22.873 0 0 1-2.4-1.89 51.171 51.171 0 0 1-3.064-3.36c-1.134-1.39-2.741-3.689-3.906-5.613l-.416-.687-.257-3.769a402.395 402.395 0 0 0-.283-3.933c-.046-.313-.261-.515-.666-.633l-.227-.065.027-.367c.053-.737-.197-1.78-.53-2.207a3.048 3.048 0 0 0-.832-.607c-.416-.21-.673-.24-1.913-.24h-1.1l-.14.42-.144.416h1.134l.163.19a2.194 2.194 0 0 1 .545 1.604l-.027.306-.23.229-.231.229-.087-.275c-.19-.58-.473-.977-.783-1.115-.246-.107-.605-.05-.896.134-.174.11-.148.126-.352-.225a3.068 3.068 0 0 0-1.111-.993c-.465-.203-1.21-.226-2.046-.061a2.804 2.804 0 0 0-.96.313c-.643.324-.98.729-1.108 1.332a.963.963 0 0 0-.03.23c.01.007.377-.031.824-.085l.809-.103.567.573c.31.306.567.573.567.588 0 .011-.177.038-.393.046-.737.046-1.263.324-1.512.802a3.066 3.066 0 0 0-.16.477 5.431 5.431 0 0 1-.09.332 2.175 2.175 0 0 1-.31-.091 1.985 1.985 0 0 0-.832-.111h-.533l-.276.141c-.567.286-.828.546-1.324 1.29-.13.217-.242.443-.336.676-.169.387-.358.764-.567 1.13-.223.382-.397.703-.394.71a3.763 3.763 0 0 0 1.914-.935l.242-.21h1.342l.473.604c.65.832 1.145 1.275 2.155 1.92.545.344 1.025.611 1.622.897l.843.401.51.474c.802.737 1.411 1.52 1.706 2.199.397.89.579 1.481.7 2.268.053.336.056.584.038 1.29l-.03.879-.194.32a3.967 3.967 0 0 0-.612 1.91c-.06.756.314 1.588 1.044 2.34l.264.267-.075.134c-.102.19-.239.313-.556.496-.37.207-1.021.42-1.74.566-.204.035-.407.08-.608.133.118.108.244.206.378.294.722.523 1.61.844 2.314.844.477.013.945-.138 1.327-.428.405-.275.575-.47.968-1.122l.246-.413.212.222.208.218.113-.123c.236-.278.407-.607.5-.962.226-.706.29-1.413.226-2.604-.021-.274-.031-.55-.03-.825.034-.03.926-.206.945-.183l.893 1.264c1.21 1.73 2.041 2.76 3.497 4.334a25.27 25.27 0 0 0 6.077 4.872c2.181 1.218 3.168 1.641 5.153 2.207l1.244.358.265.08-.004.963c0 .641-.018 1.008-.053 1.096-.071.147-.16.286-.264.412-.288.374-.84.71-1.509.932l-.457.152.071.321c.038.18.076.336.076.359a4.964 4.964 0 0 0 3.104-.909c.503-.397.82-.767 1.263-1.489.154-.231.34-.44.552-.618.658-.588 1.346-1.36 1.698-1.898.492-.756.855-1.573 1.002-2.268l.083-.374 1.566-1.73 1.558-1.722h.82l.023 1.562c.038 2.718.325 4.639.987 6.636.499 1.52 1.614 3.505 2.439 4.352.234.237.264.287.314.516.11.521.057 1.064-.152 1.554l-.113.298-.484.263a15.16 15.16 0 0 1-2.431 1.027c-1.664.588-2.568.787-4.776 1.058-1.558.102-3.12.104-4.678.004a32.054 32.054 0 0 1-4.276-.722l-1.278-.302-.488-.324c-1.49-1.004-2.038-1.478-3.343-2.921-.472-.523-1.259-1.741-1.818-2.814l-.197-.382-.378-.229a5.565 5.565 0 0 1-.643-.477 9.266 9.266 0 0 1-1.346-1.554l-.242-.378h-2.806l-.688.924c-.378.511-.68.931-.68.935.007.008 2.124.134 2.238.134.038 0 .798.932.798.974-.099.02-.199.026-.299.019-.287 0-.306-.008-.51-.153a.967.967 0 0 0-.443-.199c-.34-.064-.518-.003-.87.294l-.2.168-.435.023a4.751 4.751 0 0 0-1.561.363c-.474.21-.873.562-1.142 1.008-.227.33-.37.71-.416 1.107-.051.453-.058.91-.02 1.363.012.008.398-.236.863-.542l.847-.553.442.435.443.439.211-.069c.118-.038.242-.076.273-.091a7.17 7.17 0 0 1-.673.729c-.726.74-.738.748-1.139.935-.46.218-1.096.688-1.372 1a2.927 2.927 0 0 0-.427 2.673c.143.55.219.756.518 1.444l.087.202.189-.52c.302-.824.658-1.336 1.066-1.55a.753.753 0 0 1 .393-.053l.265.012.053.21c.068.266.213.506.416.69.113.08.178.092.507.092.32 0 .415-.019.635-.114.359-.153.756-.394 1.115-.668l.306-.23h2.942l1.657 1.169c1.247.886 1.701 1.233 1.852 1.405.549.63.673 1.08.707 2.604.038 1.542.186 2.237.617 2.883l.2.297v.405c0 .393 0 .42-.163.745a3.736 3.736 0 0 1-1.342 1.428 2.237 2.237 0 0 0-.45.332c.057.05.885.195 1.361.24.292.038.588.031.878-.019 1.15-.171 1.652-.542 2.155-1.596.158-.317.285-.65.378-.992.102-.386.151-.508.253-.619a2.79 2.79 0 0 0 .643-1.077c.102-.297.102-1.615.004-2.061l-.068-.29.22-.71c.226-.75.313-1.196.355-1.868.023-.29.045-.405.075-.393l1.362.443c1.111.355 1.512.466 2.673.714 2.533.553 4.416.737 7.075.687 2.507-.038 4.325-.282 7.078-.94a25.5 25.5 0 0 0 2.855-.816l1.373-.459c.022 0 .382.611.491.825a2.621 2.621 0 0 1-.026 2.242c-.201.374-.45.721-.741 1.03-.227.241-.239.252-.121.229l.548-.087c.915-.138 1.603-.47 2.132-1.035.381-.4.635-.905.73-1.451.102-.44.106-.489.087-1.275a13.537 13.537 0 0 0-.064-1.062l-.045-.248.234-.588c.374-.943.446-1.458.344-2.482a5.481 5.481 0 0 0-.34-1.565c-.114-.306-.117-.34-.117-1.031 0-1.321.234-2.757.586-3.578.314-.733.442-.916.964-1.363.68-.573.96-.702 1.97-.882l.129-.023v1.035h.7l.203.306c.465.733.617 1.126.662 1.744.015.195-.004 1.593-.038 3.105-.034 1.508-.057 2.749-.049 2.752.008.008.132-.63.284-1.416.15-.79.283-1.424.29-1.413.008.008.061.962.114 2.12l.099 2.11-.28.734c-.53 1.413-.87 2.772-.957 3.852l-.042.535-.858 1.672-.85 1.673-2.25 2.455-2.247 2.455-2.654 1.355-2.658 1.356-4.541 1.519-4.538 1.52-1.789.118c-1.841.123-4.083.313-4.915.42-.643.081-1.619.313-1.766.42l-.113.081-2.863-.104-2.858-.099-3.729-1.413-3.728-1.42-3.37-1.798-3.372-1.802-.303-.558c-.098-.189-.2-.378-.302-.565a4.905 4.905 0 0 1-1.017.118 3.079 3.079 0 0 1-2.59-1.237c-.193-.236-.25-.278-.454-.343a3.072 3.072 0 0 1-1.482-.985 9.273 9.273 0 0 1-1.188-1.623l-.374-.611-.019.412-.019.413-.423-.558c-.145-.183-.283-.37-.416-.561.007-.008.257.015.56.046.302.038.555.053.566.038.034-.031-.359-.474-.744-.84a12.836 12.836 0 0 0-1.558-1.249l-.431-.297.378-.012c.128.004.256-.007.382-.034 0-.061-.757-.993-.999-1.234a9.726 9.726 0 0 0-1.712-1.298 11.01 11.01 0 0 1-.503-.29c0-.008.276.096.605.23 1.123.438 1.282.496 1.297.48a5.422 5.422 0 0 0-.53-.916 10.892 10.892 0 0 0-2.662-2.47l-.586-.39.393-.023.394-.019-1.619-1.409c-.888-.775-1.61-1.413-1.603-1.42.004-.012.457.168 1.002.397.544.229.995.409 1.002.4a1.976 1.976 0 0 0-.299-.591c-.718-1-1.081-1.397-2.204-2.42a25.274 25.274 0 0 1-.741-.696c0-.015.268.107 1.21.554.435.206.794.374.805.367a5.83 5.83 0 0 0-.212-.474c-.404-.867-1.066-1.691-2.193-2.73a6.872 6.872 0 0 1-.51-.504c.22.056.439.123.654.199.352.122.643.21.643.198 0-.046-.348-.618-.59-.97a7.257 7.257 0 0 0-.847-.954c-.198-.19-.39-.385-.575-.588.008 0 .37.141.806.324.43.188.794.329.801.321a10.62 10.62 0 0 0-.544-.706l-.56-.695-.624-.168-1.384-.374a7.443 7.443 0 0 1-.767-.23c0-.007.219-.148.484-.305l.491-.286.552.553.556.554.299.065c.162.03.43.103.593.16.163.05.628.187 1.033.298 1.694.474 2.39.527 3.505.264l.393-.096-.99.993c-.324.312-.634.64-.927.981.03-.011 1.123-.305 2.42-.649 1.297-.344 2.375-.641 2.39-.657.015-.011.09-.343.166-.737.076-.39.144-.714.151-.717.03-.031 2.182-1.096 2.194-1.085 0 .008-.197.764-.443 1.68-.246.924-.442 1.68-.435 1.688.008.008.265-.16.568-.374 1.44-1.031 2.355-2.108 2.938-3.456.397-.916.6-2.119.525-3.085a5.735 5.735 0 0 1-.03-.55c.132.11.256.228.37.355l.363.367.462 1.615c.257.886.476 1.63.491 1.66.012.024.227-.343.47-.82l.445-.867.06-3.742.065-3.749-.102-.573c-.242-1.347-.877-2.825-1.577-3.635a8.764 8.764 0 0 0-2.28-1.874 4.312 4.312 0 0 1-.408-.24c0-.012.544.17 1.21.4.665.225 1.21.409 1.21.4l-.182-.442c-.427-1.008-1.232-1.943-2.442-2.84l-.39-.287-2.465-.008-2.473-.011.238-.141c.526-.325 1.297-.47 2.673-.512l.772-.023-.522-.344-.518-.35-.53-.066a12.601 12.601 0 0 0-2.684 0 8.794 8.794 0 0 0-3.203 1.054c-.2.115-.37.202-.386.202-.01 0 .416-.53.946-1.172.688-.828.949-1.172.888-1.157l-1.21.199-1.123.18-.578.362c-1.18.73-2.053 1.493-2.575 2.245a9.993 9.993 0 0 1-.284.393c-.132.16-.34.623-.522 1.146a7.586 7.586 0 0 1-1.126 2.195l-.227.302.075.989.084.985.374 1.271c.212.695.439 1.42.514 1.604.288.695.734 1.527 1.059 1.974.178.237.325.431.329.424.004-.008-.102-.722-.235-1.585a70.358 70.358 0 0 1-.238-1.584c0-.008.238.252.514.569.276.32.51.572.518.565.008-.008-.01-.726-.041-1.604-.022-.53-.04-1.059-.053-1.588l.318-.115c.567-.187.922-.618 1.145-1.378l.114-.382v.626c0 .348.019.63.034.63.152-.078.29-.182.408-.305.182-.214.477-.798.605-1.188.151-.454.2-.721.25-1.298l.026-.336.14.374c.159.416.046.313.945.894l.288.187.624-.726.627-.721.012.523.011.527h.787l.321-.42.321-.42.545.007h.54l-.502.256a2.767 2.767 0 0 0-.507.29c0 .054.291.802.314.802l.794-.21.775-.21.011.37c-.006.126.01.251.046.37.181 0 .926.1 1.206.161.365.072.706.233.994.47l.118.126h-.859c-.472 0-.862.008-.862.015 0 .012.632 1.146.654 1.172.008.012 2.02.321 2.088.325.03 0 .518.764.503.783a11.93 11.93 0 0 1-.855-.222l-.84-.229.114.141c.057.08.435.562.832 1.07.397.515.718.939.71.946a5.783 5.783 0 0 1-.604-.114 6.517 6.517 0 0 0-.613-.122c.138.383.287.763.446 1.137.254.615.454 1.127.45 1.134a3.997 3.997 0 0 1-.53-.084 32.605 32.605 0 0 0-.517-.099c-.008 0-.011.466-.011 1.039 0 .97-.004 1.034-.069 1.015l-.328-.084c-.144-.038-.292-.068-.326-.084-.068-.019-.075.035-.075.718.004.409 0 .74-.004.74-.008 0-.299-.075-.647-.175a5.693 5.693 0 0 0-.65-.164c-.075.3-.143.602-.204.905l-.19.89-.003-.432-.004-.431-.578.015-.579.011-.526.91-.518.904-.01-.817-.008-.82-.114.018a20.35 20.35 0 0 1-.737.103 8.389 8.389 0 0 0-.658.1 3.427 3.427 0 0 0-.253.397 1.405 1.405 0 0 1-.265.359 4.37 4.37 0 0 1-.291-.432l-.265-.412-.783-.023a8.116 8.116 0 0 1-1.077-.084c-.492-.103-.794-.195-.768-.222.17-.055.342-.097.518-.126.166-.022.33-.06.488-.114a3.671 3.671 0 0 0-.303-.325l-.314-.305-.888-.061c-.3-.02-.6-.045-.9-.077.188-.082.382-.152.578-.21.207-.055.407-.132.598-.229 0-.026-.632-.985-.711-1.069a6.559 6.559 0 0 0-.756-.152 14.36 14.36 0 0 1-.794-.15c-.038-.01.019-.05.147-.103.114-.045.208-.103.208-.122a1.462 1.462 0 0 0-.132-.26c-.261-.42-.81-.874-1.626-1.32l-.382-.218.454-.011c.153.005.306-.006.457-.031a3.106 3.106 0 0 0-.321-.664 3.938 3.938 0 0 0-1.025-.806l-.291-.16.378-.012c.13.008.26-.005.386-.038 0-.015-.042-.397-.099-.844l-.098-.817-.68-.687-.681-.684.552.176.563.18c.004 0 .008-.264.008-.585v-.592l-.503-.511c-.333-.336-.461-.489-.37-.435l.408.229.265.145v-1.123l-.379-.664-.582-1.004c-.11-.184-.17-.317-.144-.294l.443.328.39.286.188-.39c.182-.385.186-.392.186-.786 0-.572-.091-.813-.583-1.515l-.393-.558.575-.011.575-.012v-.649c0-.913.15-2.306.378-3.41.049-.252.087-.458.083-.465-.375.22-.744.45-1.108.687l-1.097.695h-2.22l-.018.088c-.011.053-.087.42-.163.828-.314 1.65-.28 3.582.072 4.666.087.271.102.42.144 1.336.023.565.087 1.42.14 1.902.151 1.374.306 2.073.71 3.207.144.401.254.733.25.737-.007 0-.537-.382-1.18-.852L.015 68.59l-.011.729-.008.73.92 1.69.926 1.696h.238c.602.027 1.179.254 1.64.645.207.198.369.438.477.703.133.263.242.492.242.504 0 .007-.453.023-1.01.027l-1.009.011.802.821a23.016 23.016 0 0 0 2.904 2.543c1.07.779 1.77 1.157 2.745 1.478.136.033.266.087.386.16-.038.065-.62.076-.995.019-1.584-.24-3.35-1.527-5.407-3.918a7.43 7.43 0 0 0-.503-.553c-.008.007.03.699.087 1.535l.098 1.527.704 1.558.703 1.554.59.408c.325.222.605.428.628.447.026.027.185 1.287.189 1.512 0 .027-.45-.313-.995-.756-.403-.33-.807-.659-1.214-.985l-.215-.172.25.478c2.767 5.25 2.578 4.906 2.73 4.952.446.145 1.16.737 1.58 1.317.25.344.942 1.535.907 1.565-.037.039-.752-.286-1.089-.5-.468-.298-.763-.553-1.512-1.287l-.567-.56 1.195 2.05c.658 1.126 1.225 2.073 1.263 2.1.037.03.215.152.4.275.356.232 1.161.985 1.611 1.508.284.32 1.108 1.485 1.082 1.516a22.295 22.295 0 0 1-1.267-.401l-1.248-.413 1.263 1.249c1.346 1.336 2.065 1.947 3.036 2.588l.484.317.995 1.287c.548.71.987 1.298.98 1.302-.422-.115-.841-.241-1.256-.378l-1.248-.389.552.557c1.225 1.237 3.154 2.814 4.447 3.635l.805.512.893 1.008c.491.557.892 1.019.892 1.031 0 .007-.522.022-1.16.026l-1.154.012 1.316.844 1.316.851h2.045l.318.477.31.478h1.61l.712.576.71.577h.859l.246.252c.09.084.173.177.245.278 0 .016-.359.027-.797.027h-.806l-.53.183-.521.191.023.142c.054.215.165.412.321.568.166.165.85.466 1.237.55.189.042.692.122 1.115.18.5.068 1.236.21 2.08.401l1.304.297.783.539.787.534.162-.278.163-.279.166.134c.666.538 1.89.904 3.214.962l.628.026-.027.107c-.09.371-.87.711-2.034.879-.201.032-.403.06-.605.084-.023 0-.038.145-.038.324v.332l-.628.252c-.34.142-.635.268-.65.279.087.14.192.268.314.378l.34.344h3.887l.7.236c.62.214.756.241 1.206.283.564.046.673.038 1.354-.16.348-.1.612-.134 2.042-.26l1.648-.141.605-.321a7.48 7.48 0 0 1 .605-.302c0 .008-.65.535-1.448 1.169l-1.444 1.149-.004.447c-.007.15-.001.301.019.45.083 0 7.15-.485 7.35-.504l.246-.023 1.27-1.351 1.271-1.348h.719c.567 0 .707.011.673.046-.023.03-.749.633-1.61 1.347l-1.566 1.295v1.023c-.004.565.003 1.031.015 1.031.011 0 .423-.164.922-.359.689-.267 1.025-.424 1.418-.664.772-.458 1.8-.985 2.36-1.195 1.327-.497 1.92-.672 3.827-1.127l1.27-.305.329-.981.329-.978.518-.183c.287-.103.53-.176.537-.168a3.765 3.765 0 0 1-.257.531 8.985 8.985 0 0 0-.84 2.05c-.113.477-.257 1.378-.227 1.413.012.011 1.127-.833 2.48-1.875l2.459-1.894.87.118.873.126.866-.549c.48-.298.88-.558.896-.573a3.37 3.37 0 0 0 .09-.481c.14-.97.364-1.737.715-2.417.174-.344.178-.344.155-.168-.106.937-.2 1.875-.28 2.814.023.023 2.33-.306 2.42-.344.053-.019.787-.901 1.642-1.97l1.554-1.932v-.828l.004-.829.62-.37c.336-.203.624-.363.627-.359.008.011-.12.676-.283 1.481-.105.494-.197.991-.276 1.489.037.038.639-.114.907-.229.575-.248 1.085-.721 2.042-1.897.31-.377.638-.737.983-1.081l.454-.435.098-.497c.057-.278.121-.863.16-1.347.101-1.44.222-2.036.483-2.436l.114-.168.022.717c.03.882.076 1.279.257 1.978.125.516.522 1.661.567 1.661.016 0 .144-.412.292-.916l.264-.917 1.672-2.73 1.663-2.737-.34-1.577c-.185-.867-.348-1.6-.355-1.627-.012-.023.283.206.646.52l.662.572-.008.176c-.064 1.779.023 2.405.435 3.116.2.336.208.343.235.24.019-.061.113-1.019.208-2.13l.181-2.024.291-.409c.605-.84 1.002-1.775 1.116-2.577a6.963 6.963 0 0 0-.635-3.944 1.621 1.621 0 0 1-.17-.47c.075-.03.423.18.608.37.178.18.216.245.33.62.067.228.188.702.264 1.053.185.825.31 1.203.522 1.573.181.32.264.413.503.554l.147.091.696-1.428.7-1.428-.023-.557a22.11 22.11 0 0 0-1.69-7.388c-.284-.626-.296-.665-.228-.596.03.03.398.496.814 1.023.73.924.775.99 1.122 1.692l.363.73.174-.52c.356-1.111.416-2.215.17-3.295a7.518 7.518 0 0 0-1.38-2.856c-.268-.316-.55-.62-.847-.909l-.544-.534.06-.146c.295-.675.367-1.137.295-1.84a3.582 3.582 0 0 0-.525-1.562c-.1-.17-.186-.348-.254-.534.012-.012.832-.187 1.834-.39l1.808-.37.605.363c.919.553 1.3.866 1.607 1.32.367.54.544 1.001.631 1.616.023.164.087 1.42.144 2.795l.102 2.497-.083.332c-.05.198-.106.394-.166.588-.3.932-1.256 2.352-2.284 3.394-.198.19-.386.391-.564.6.294.1.601.157.911.168.515.03 1.173-.05 1.967-.24.188-.052.38-.088.575-.108.015.016.317.497.68 1.07l.658 1.042.045.374c.091.825.091 1.107 0 1.898a9.547 9.547 0 0 1-.744 3.043l-.34.87-3.74 3.028a528.554 528.554 0 0 0-3.759 3.059c.148.192.315.369.5.526.918.863 1.307 1.616 1.462 2.788.053.374.02.698-.12 1.336l-.084.367-1.701 1.435-1.702 1.432-4.121 1.237-4.145 1.233a1.539 1.539 0 0 1-.11-.252l-.09-.252-.964.581-.96.58-.004 1.993v1.99L77 118.887c-.548.611-1.024 1.126-1.058 1.145-.03.019-4.042.966-8.913 2.104l-8.848 2.073-3.705.435c-2.03.245-3.748.459-3.808.47-.083.023.43.141 1.943.458l2.054.432 8.36-.802 8.357-.794 8.545-3.505 8.546-3.505 7.872-5.984 7.873-5.983 4.742-6.995 4.738-6.998 2.639-7.377 2.639-7.37-.556-6.815-.635-7.781-.076-.958-3.641-7.98-3.637-7.98-5.423-5.124-5.426-5.124-7.275-3.01-7.279-3.008-5.619-.359-5.615-.359-4.261.798-4.258.798-3.286 2.085-3.278 2.093-1.71 2.222a134.61 134.61 0 0 0-1.701 2.233c.008.008.628-.282 1.384-.649l1.372-.653 1.755.138c.96.076 1.762.152 1.777.168l.34.485c.863 1.248 1.573 2.443 2.386 4.028l.439.855.083 1.78.087 1.775-.25.431c-.434.764-.87 1.287-1.5 1.799-.496.408-.666.462-1.562.527a5.42 5.42 0 0 1-1.067-.004l-.397-.046-.34-.267a6.254 6.254 0 0 1-1.418-1.55c-.023.022.114.58.238.985.224.702.224.985.004 1.32-.132.203-.472.295-1.089.29a1.649 1.649 0 0 1-1.104-.32c-.53-.336-1.41-1.348-2.204-2.52-.22-.32-.405-.596-.42-.61.007.147.031.293.072.434.078.28.094.573.049.86a2.44 2.44 0 0 1-.824 1.657l-.303.286-.635-.008h-.643l-.382-.462a15.83 15.83 0 0 1-.639-.824 15.564 15.564 0 0 1-1.047-1.967c-.102-.244-.118-.248.423.138.257.183.635.39 1.21.657.462.213 1.059.507 1.339.649l.503.263.049-.168a1.6 1.6 0 0 0-.227-1.058c-.057-.087-.68-.546-1.785-1.313a87.65 87.65 0 0 1-1.75-1.222 15.069 15.069 0 0 1-.16-1.878c.008-.008.292.267.628.61l.613.627.813.324c.446.18.817.32.824.313.008-.007-.43-1.084-.964-2.394l-1.013-2.462c-.023-.065.068-.268.416-.879.51-.916.6-1.053.907-1.336l.227-.202v2.115l.503.94c.276.51.51.927.514.916.008-.008.038-.447.072-.982.038-.534.094-1.221.14-1.527a11.148 11.148 0 0 0 0-3.486l-.076-.538.583-.588.586-.592.136.092c.317.213.4 1.008.238 2.264l-.08.637c0 .042.386-.37.61-.66.427-.54.75-1.157.952-1.818.166-.649.238-1.145.238-1.653v-.481l.575-.115.575-.114.234-.298c.503-.645.65-.813.881-.993.112-.09.234-.169.363-.233l.129-.045-.057.148a294.84 294.84 0 0 0-1.664 4.262c.008.007.51-.317 1.123-.722l1.116-.733.635-.894.632-.9.083-1.047c.041-.58.083-1.054.09-1.054l1.2-.9 1.236-.925c.064-.038.143-.225-.9 2.157-.496 1.13-.896 2.066-.889 2.074a3.88 3.88 0 0 0 .5-.26c.322-.17.618-.39.877-.649.56-.538 1.172-1.36 1.565-2.1l.325-.607v-1.814l1.153-.714c.632-.39 1.157-.702 1.173-.695.007.016-.276.863-.636 1.89-.359 1.027-.646 1.871-.639 1.879.102-.024.201-.06.295-.107.34-.149.817-.489 1.123-.817a8.595 8.595 0 0 0 1.112-1.619l.265-.504v-2.26l.775-.78c.715-.71.767-.763.749-.633-.106.68-.598 4.124-.59 4.131.004.004.143-.145.302-.34.575-.668 1.051-1.515 1.562-2.772l.223-.55-.121-1.118-.121-1.119.302-1.138c.16-.626.303-1.168.314-1.206.015-.054.095-.015.435.229.39.286.412.31.435.47l.144 1.382.124 1.221c.114-.09.22-.19.318-.297l.303-.306.052-.382c.03-.24.046-.76.042-1.45a8.738 8.738 0 0 0-.132-1.852c-.087-.533-.2-1.06-.34-1.581l-.212-.802v-1.363l-.261-.458-.254-.458.212.168.609.488.397.321.624 1.085c.344.599.635 1.08.643 1.069a5.027 5.027 0 0 0-.129-.65 14.847 14.847 0 0 0-1.361-3.78l-.303-.565-.567-.232-.56-.23-.718-1.069a21.545 21.545 0 0 1-.707-1.084c.004-.004.613.282 1.342.638.73.355 1.331.637 1.335.618a5.078 5.078 0 0 0-.136-.58l-.151-.558-.242-.011-.242-.012-.09-.225a1.67 1.67 0 0 0-.45-.573 3.319 3.319 0 0 0-1.653-.916 2.337 2.337 0 0 1-.65-.233 7.508 7.508 0 0 0-1.767-.897l-.85-.329-.015.474-.012.473.662.94c.363.519.65.943.643.954a21.172 21.172 0 0 1-.813-.706L66.7 5.65V4.42h-.907l-.477-.381a5.47 5.47 0 0 1-.46-.401c.007 0 .737.06 1.625.149l1.607.16.658-.302.662-.297.427.064c.287.042.719.065 1.358.065.47.027.942-.002 1.406-.088 1.4-.267 1.929-.435 3.063-.992.828-.393.862-.409 1.123-.409h.272l.741-.867.84-.973c.056-.061.087-.11.064-.107-.019 0-.53.19-1.127.424h-.003ZM57.354 2.268c1.278.092 2.17.355 2.798.825.16.126.284.229.276.24a216.824 216.824 0 0 1-4.254-.118c.155-.341.335-.67.537-.985l.643.038ZM29.033 13.352v.29l-1.846 1.108c-1.013.603-1.853 1.1-1.864 1.1-.011 0-.019-.39-.019-.871v-.875l.409-.11c.412-.115 3.29-.917 3.308-.928.008.095.014.19.012.286ZM7.94 37.322l-1.275 1.513-.96 1.145-.008 1.44-.01 1.443-.213-.271a6.114 6.114 0 0 1-.745-1.493 2.359 2.359 0 0 1 .038-1.275c.064-.19.142-.374.235-.55l.113-.206h.469l.548-.65.896-1.053.348-.409h.878l-.314.367Z"/><path d="m44.1 3.433-.615.523-.114.32a4.505 4.505 0 0 0-.28 1.745c0 .39-.007.71-.007.71s-.291-.374-.643-.84c-.605-.786-.654-.859-.832-1.32a4.062 4.062 0 0 0-.204-.459l-.08 1.1-.079 1.084.355.565c.643 1.024 1.271 1.562 2.163 1.856.552.18.84.221 1.823.282 1.074.07 1.55.012 2.518-.305.416-.13.65-.237 1.048-.47.499-.29.537-.305 1.35-.523a29.63 29.63 0 0 0 1.607-.473c1.5-.489 2.106-.634 2.658-.63h.34l.54.405.545.4.133-.168a1.508 1.508 0 0 0 .215-1.282l-.053-.199-.295-.03a13.893 13.893 0 0 0-1.187-.016c-1.096.023-1.422.08-2.617.474-.529.171-1.01.393-1.531.71-.605.366-2.367.985-3.15 1.107-1.21.191-1.91.145-2.53-.172a2.214 2.214 0 0 1-.952-.928c-.193-.313-.204-.336-.246-.756-.068-.698.045-1.584.242-1.859.064-.084.53-1.382.503-1.375-.008 0-.288.237-.624.524Zm31.733 1.172c-1.43.076-2.601.141-2.613.152-.007.008.197.669.47 1.455l.483 1.436.186.053.839.245.662.187.529-.44c.291-.24.533-.435.537-.43 0 0-.045.427-.11.942l-.113.943c0 .008.416.012.93.012h.93l.507-.332c.276-.184.53-.344.556-.36-.04.23-.103.456-.19.673l-.23.695h1.743l1.218.362c.669.199 1.232.374 1.255.386.076.05-.983.248-1.822.344-1.358.16-2.027.213-3.048.263l-.945.042-.984.462c-.336.154-.669.316-.998.485-.015.015.367.233.847.485.484.248.9.473.93.496.038.03-.007.145-.227.535a20.17 20.17 0 0 1-2.177 3.215l-.432.519-.117.63c-.068.344-.113.642-.102.65.008.007.276-.123.594-.291.321-.168.586-.298.593-.29.012.007-.015.591-.056 1.298l-.08 1.287.276 1.298c.3 1.393.51 2.119.844 2.856.11.24.207.458.226.473.053.054.344-.324.507-.664.09-.18.208-.485.265-.676.125-.409.075-.443.491.294.628 1.13 1.486 2.142 2.333 2.76l.371.264 1.236.26c.681.137 1.248.244 1.248.24a29.518 29.518 0 0 0-.204-1.508c-.015-.1.038-.073.719.393l.737.508.465-.221.465-.218.719.31.722.313 1.32.06c.718.035 1.319.058 1.323.046a15.708 15.708 0 0 0-.54-1.004 8.585 8.585 0 0 1-.53-1.015c.022-.016.39-.199.832-.405 1.69-.802 2.994-1.756 3.64-2.654l.152-.21-.291.023c-.56.05-1.588.107-1.603.096.296-.35.601-.693.915-1.027l.926-1.016v-2.367h-.215c-.424.007-.839.119-1.21.324a1.476 1.476 0 0 1-.208.115c-.015 0-.034-.401-.038-.882l-.011-.886-.435-.191c-.72-.3-1.464-.54-2.224-.714a28.559 28.559 0 0 0-2.155-.378c-.004.004.333.305.749.657.42.358.779.687.794.733.019.05.113.63.22 1.298l.18 1.214-.567 2.039c-.172.678-.37 1.349-.59 2.012a17.579 17.579 0 0 1-.317-1.134c-.09-.371-.195-.74-.314-1.103a3.19 3.19 0 0 0-.197.45c-.34.867-.756 1.611-1.047 1.867a.62.62 0 0 1-.151.115c-.023 0-.034-.164-.034-.355v-.348l-.386.077a2.434 2.434 0 0 1-1.24 0 2.162 2.162 0 0 0-.802-.092h-.544v.122c0 .061-.015.119-.03.119a41.605 41.605 0 0 1-1.422-.126c.173-.127.354-.243.54-.348.19-.097.367-.22.526-.363-.37-.149-.745-.289-1.123-.42a52.196 52.196 0 0 1-1.108-.404c.11-.144.234-.278.367-.401.208-.218.386-.405.386-.42 0-.015-.326-.435-.723-.936l-.756-.954c-.026-.027.242.118.59.324.34.21.635.37.643.363-.105-.402-.221-.8-.348-1.195l-.356-1.188.571.573c.314.313.571.558.571.543 0-.07-.158-2.215-.181-2.452l-.027-.252.643.458.635.462.681-1.156.688-1.158.012.741c.003.409.019.737.03.737.007 0 .544-.328 1.195-.737l1.183-.737.012.52c.003.282.015.519.022.519l1.37-.332 1.353-.336v.435c0 .237.007.431.022.431.012 0 .348-.137.757-.305.244-.117.5-.207.764-.267.019.019.083.297.143.618l.106.592H93.2l-.453.695-.454.699h1.025c.567 0 1.032 0 1.032.007l-.14 1.146c-.121 1.03-.128 1.138-.076 1.183.038.023.65.375 1.37.772.718.405 1.292.74 1.277.752a5.34 5.34 0 0 1-.665.114l-.923.134-.287.038v.459c0 .248 0 .45.011.45l2.08.416 2.068.42.78.638c.423.355.77.656.77.668 0 .02-.51.134-1.141.26-.442.089-.883.18-1.324.275l-.189.038v.87h1.07l2.08 1.222c1.142.672 2.076 1.226 2.072 1.23-.341-.042-.682-.09-1.021-.146a7.434 7.434 0 0 0-1.044-.118c-.015.015-.151.225-.302.466-.219.351-.261.439-.216.477.027.023 1.437.829 3.12 1.787l3.07 1.749.325.592c.178.328.318.607.307.618-.222.027-.446.04-.67.038a3.636 3.636 0 0 1-1.573-.213 2.287 2.287 0 0 0-.287-.096c-.057 0 .401.832.579 1.054.313.393.96 1.03 1.274 1.252.174.126.62.405.991.623l.673.381 1.021 1.024a32.158 32.158 0 0 1 1.009 1.03c-.405-.12-.809-.247-1.21-.381-.391-.138-.787-.26-1.187-.367l.972 1.68.956 1.65 1.218.675c.673.37 1.244.695 1.27.718.038.03.019.123-.106.459-.086.229-.162.442-.177.47-.012.03-.307-.15-.847-.509l-.832-.557.144.527.132.527 1.459 1.474 1.46 1.473.545.852c.302.466.54.851.529.859-.308-.074-.613-.16-.915-.256a13.575 13.575 0 0 0-.9-.252l2.696 5.785 2.692 5.765.492 2.528c.276 1.382.869 4.467 1.323 6.846.454 2.382.828 4.326.832 4.322.004-.004-.094-2.15-.223-4.765l-.257-5.357c-.091-2.085-.889-18.072-.9-18.083-.273.364-.534.737-.783 1.119l-.76 1.134h-.711v-7.946l-.393-.775-.386-.775-.06.198-.567 2.1c-.329 1.215-.526 1.879-.545 1.833a30.34 30.34 0 0 1-.227-1.306l-.2-1.233-.14-2.482c-.038-.834-.086-1.668-.144-2.5-.304.47-.594.95-.869 1.439-.707 1.218-.855 1.44-.878 1.363-.015-.05-.348-2.062-.745-4.471-.397-2.41-.726-4.41-.737-4.44-.217.425-.408.863-.571 1.313-.161.45-.351.889-.571 1.313-.019-.03-.794-1.985-1.728-4.337-1.251-3.158-1.701-4.25-1.72-4.181l-.269 1.55c-.078.496-.168.99-.268 1.482a183.73 183.73 0 0 1-1.868-4.449c-.6-1.486-1.223-2.962-1.868-4.429-.015.03-.178.78-.359 1.669a30.093 30.093 0 0 1-.356 1.626c-.015 0-1.403-1.886-3.09-4.18a335.333 335.333 0 0 0-3.077-4.17c-.008.008.03.718.083 1.585l.099 1.618c0 .03-1.43-1.294-3.173-2.94l-3.176-2.985-.004 1.511-.011 1.509-2.39-.886a155.601 155.601 0 0 1-2.375-.886 24.41 24.41 0 0 1 1.09-.168c.369-.049.737-.108 1.103-.18.012-.01.106-.374.212-.809l.208-.897.03-.11h-.953l-3.845-1.631c-3.176-1.352-3.876-1.634-4.02-1.63l-2.76.14ZM5.293 53.962l-.793.794H2.696l-.964-.721-1.01-.764c.048.18.12.354.212.516l.54 1.134.277.58.567.02c.59.026.908.099 1.21.282l.136.084-.136.03-.473.077c-.665.087-1.512.492-1.928.916l-.19.195H3.09l.719-.458c1.1-.703 1.796-1.364 2.295-2.18.192-.287.34-.601.439-.932.026-.103.049-.23.06-.283.02-.084.012-.088-.246-.088h-.268l-.794.798Z"/></g></g><defs><clipPath id="a"><path fill="#fff" d="M0 0h121v126H0z"/></clipPath></defs></svg>