<svg xmlns="http://www.w3.org/2000/svg" width="98" height="43" fill="none"><g fill="#fff" clip-path="url(#a)"><path d="M3.559.433 3.362 0C2.723.04 1.298.758.58 1.623c-.72.865-.565 1.933-.565 1.933.103.721.67 1.493 1.554 1.614.885.12 1.672-.313 1.991-.842.32-.529.516-1.202 0-1.972-.413-.615-1.106-.833-1.4-.865.163-.273.673-.866 1.4-1.058Z"/><path fill-rule="evenodd" d="m24.907 33.554 5.589-4.585-.736-.78-1.568 1.17c-.932-.878-1.422-2.488-1.47-4.78l-.393-16.537c-.049-1.464.343-2.78 1.078-4 .54-.83 1.422-1.903 2.745-3.122l-.098-.098c-2.107.488-3.921 1.659-5.539 3.512-3.137-2.146-6.421-3.22-9.852-3.22-2.439 0-4.597.584-6.457 1.769.163.552-.01 1.04-.254 1.445-.319.53-1.105.962-1.99.842a1.696 1.696 0 0 1-.31-.073C3.75 7.24 2.8 9.587 2.8 12.14l.098 1.074c.245 2.683 1.96 5.512 5.196 8.488L3.732 28.14c-1.128 1.707-1.716 3.024-1.716 4.049 0 .829.343 1.268 1.078 1.268.785 0 1.177-.342 1.177-1.024 0-.226-.13-.62-.256-1.003-.119-.36-.234-.71-.234-.9 0-.78.637-1.415 1.372-1.415.54 0 1.226.244 2.059.683l6.96 3.659 7.157-5.317c.588 2.488 1.765 4.293 3.578 5.414ZM21.182 8.432v10.732h-9.656l3.386-4.966c.255.13.539.23.837.26.673.068 1.391.065 1.995-.242 1.145-.524 1.484-2.037 1.484-2.037s-.558.88-1.484.95c-.738 0-1.315-.424-1.627-.697l3.693-5.415h.392l.98 1.415ZM13.437 4.92c1.716 0 3.48.39 5.343 1.17l-1.176 1.757-2.402 3.463-.123.179c-.385-.272-.883-.521-1.434-.541-.954-.034-1.542.231-2.067.77-.458.472-.982 1.612-.982 1.612s.707-.92 1.507-.92c.949.034 1.173.465 1.69.937l.008.008-5.119 7.468c-2.892-2.293-4.313-4.83-4.313-7.66 0-2.438.931-4.438 2.745-6 1.715-1.511 3.823-2.243 6.323-2.243Zm7.941 17.659v3.902l-4.117 3.317-10-4.585 1.814-2.634h12.303Z" clip-rule="evenodd"/><path d="M7.952.433 7.756 0c-.64.04-2.065.758-2.784 1.623-.719.865-.565 1.933-.565 1.933.09.633.538 1.305 1.244 1.541.17-.19.347-.38.531-.567.63-.64 1.304-1.189 2.024-1.647a1.928 1.928 0 0 0-.254-.527c-.413-.615-1.106-.833-1.4-.865.163-.273.673-.866 1.4-1.058ZM43.712 29.298l-4.484 3.816c-1.577-1.37-3.893-2.593-6.997-3.718.838-.93 1.281-2.104 1.281-3.523V6.353c0-.979-.542-2.006-1.626-3.131a8.368 8.368 0 0 1 3.252 1.565l.542-.049c1.528-1.418 3.253-2.25 5.076-2.495-1.626 1.174-2.415 2.642-2.415 4.452v20.597l3.597 2.25 1.183-.88.591.636ZM56.85 29.298l-4.484 3.816c-1.577-1.37-3.893-2.593-6.998-3.718.838-.93 1.282-2.104 1.282-3.523V6.353c0-.979-.542-2.006-1.627-3.131a8.368 8.368 0 0 1 3.253 1.565l.542-.049c1.527-1.418 3.252-2.25 5.075-2.495-1.626 1.174-2.414 2.642-2.414 4.452v20.597l3.597 2.25 1.182-.88.592.636ZM76.245 29.592l-4.238 3.522c-2.119-1.125-3.153-2.886-3.153-5.284l-6.702 5.333h-.246c-2.316-2.152-3.499-4.256-3.499-6.262 0-3.033 1.626-5.969 4.878-8.855L60.92 11.93l.64.05c1.824.146 3.549-.49 5.076-1.909l6.998 2.3 1.38-1.077.098.196a12.803 12.803 0 0 0-1.676 3.767v12.818c.247.832.74 1.321 1.38 1.517l.887-.44.542.44Zm-7.391-9.198v-5.382l-7.145-2.642 2.07 5.578 5.075 2.446Zm.049 6.164v-5.283l-5.125-2.544c-.936 1.663-1.429 3.277-1.429 4.794 0 2.202.936 4.257 2.858 6.165l3.696-3.132ZM98 29.64l-4.435 3.621c-2.365-1.517-3.006-2.935-3.006-5.87V15.696l-2.218-1.908-3.498 2.544v12.134l1.33 1.663-3.547 3.131-3.746-3.131 1.38-1.517V16.04c0-.832-.394-1.615-1.182-2.25l-.789.538-.492-.539 4.04-3.669c2.07 1.223 3.105 2.935 3.105 5.137 2.759-2.006 4.878-3.718 6.307-5.04l3.4 3.132 2.12-1.663.492.538a30.98 30.98 0 0 0-2.168 3.082v12.867c.246.587.739 1.125 1.38 1.566l1.034-.588.493.49ZM71.156 41.48c-1.154 0-1.991-.86-1.991-1.98 0-1.122.837-1.982 1.991-1.982.695 0 1.308.343 1.642.882l-.756.435c-.17-.294-.497-.468-.886-.468-.678 0-1.116.452-1.116 1.132 0 .68.438 1.133 1.116 1.133.389 0 .722-.175.886-.469l.756.436c-.328.539-.942.882-1.642.882ZM76.514 41.48a1.97 1.97 0 0 1-1.992-1.98 1.97 1.97 0 0 1 1.992-1.982c1.1 0 1.991.86 1.991 1.981a1.97 1.97 0 0 1-1.991 1.982Zm0-.848c.624 0 1.116-.452 1.116-1.133 0-.68-.492-1.132-1.116-1.132-.624 0-1.116.452-1.116 1.132 0 .68.492 1.133 1.116 1.133ZM82.061 37.594c1.057 0 1.86.827 1.86 1.905s-.803 1.906-1.86 1.906H80.53v-3.811h1.531Zm0 2.972c.602 0 1.018-.413 1.018-1.067 0-.653-.416-1.067-1.017-1.067h-.657v2.134h.656ZM85.946 37.594h.875v3.81h-.875v-3.81ZM91.145 37.594h.875v3.81h-.656l-1.477-2.068v2.069h-.876v-3.811h.657l1.477 2.069v-2.07ZM94.044 39.282v.326c0 1.165.815 1.873 1.888 1.873 1.204 0 2.068-.882 2.068-1.976a1.981 1.981 0 0 0-2.008-1.987c-.733 0-1.351.359-1.674.87l.744.425c.159-.25.504-.446.936-.446.645 0 1.126.474 1.126 1.143 0 .648-.459 1.122-1.203 1.122-.509 0-.842-.224-.98-.588h1.024v-.762h-1.92ZM98 42.207h-3.986V43H98v-.793Z"/></g><defs><clipPath id="a"><path fill="#fff" d="M0 0h98v43H0z"/></clipPath></defs></svg>