<svg xmlns="http://www.w3.org/2000/svg" width="124" height="124" fill="none"><path fill="#fff" d="M63.67 11.65a50.356 50.356 0 0 1 42.22 25.616h.006A50.161 50.161 0 0 1 112.375 62c0 4.35-.554 8.574-1.589 12.604v.01a50.4 50.4 0 0 1-46.697 37.716l-2.089.045a50.4 50.4 0 0 1-48.786-37.761v-.01a50.462 50.462 0 0 1-1.589-12.609c0-8.974 2.351-17.42 6.479-24.728A50.361 50.361 0 0 1 62 11.625l1.67.025ZM46.813 87.934a49.024 49.024 0 0 0 2.215 5.212c4.002 8.004 8.811 11.479 12.972 11.479 4.16 0 8.97-3.475 12.972-11.479a49.026 49.026 0 0 0 2.21-5.202A96.45 96.45 0 0 1 62 89.12v.005a97.555 97.555 0 0 1-15.187-1.19ZM24.037 81.39A42.638 42.638 0 0 0 35.9 95.7a42.63 42.63 0 0 0 8.623 5.171 44.543 44.543 0 0 1-2.427-4.258c-1.569-3.138-2.909-6.661-4-10.475a96.136 96.136 0 0 1-14.058-4.748Zm75.92 0a96.434 96.434 0 0 1-14.056 4.758c-1.092 3.81-2.429 7.33-3.996 10.465a44.49 44.49 0 0 1-2.432 4.258 42.634 42.634 0 0 0 8.628-5.172A42.633 42.633 0 0 0 99.958 81.39ZM34.876 62c0-3.242.157-6.421.464-9.506a65.802 65.802 0 0 1-12.523-7.3A42.481 42.481 0 0 0 19.375 62v.005a42.7 42.7 0 0 0 .964 9.042 88.521 88.521 0 0 0 15.818 6.514c-.832-4.916-1.282-10.15-1.282-15.561ZM62 19.375c-4.16 0-8.97 3.475-12.972 11.479-2.279 4.557-4.087 10.226-5.192 16.63A58.07 58.07 0 0 0 62 50.375h.005a57.867 57.867 0 0 0 18.149-2.901c-1.105-6.4-2.905-12.066-5.182-16.62C70.97 22.85 66.161 19.375 62 19.375Zm-17.468 3.739a42.604 42.604 0 0 0-4.046 2.078A42.608 42.608 0 0 0 26.56 38.306a58.106 58.106 0 0 0 9.95 6.186c1.24-6.406 3.142-12.22 5.585-17.105a44.555 44.555 0 0 1 2.437-4.273Zm34.93 0a44.481 44.481 0 0 1 2.443 4.273c2.442 4.886 4.34 10.7 5.58 17.105a57.837 57.837 0 0 0 9.955-6.186 42.608 42.608 0 0 0-13.926-13.113 42.618 42.618 0 0 0-4.051-2.08ZM42.626 62c0 6.319.661 12.281 1.822 17.64A89.562 89.562 0 0 0 62 81.374h.005a88.698 88.698 0 0 0 17.544-1.736c1.16-5.358 1.826-11.32 1.826-17.639 0-2.29-.087-4.532-.252-6.716A65.591 65.591 0 0 1 62 58.12v.005a65.825 65.825 0 0 1-19.128-2.84A89.175 89.175 0 0 0 42.625 62Zm46.5 0c0 5.411-.455 10.644-1.287 15.56a88.662 88.662 0 0 0 15.818-6.518c.628-2.913.969-5.937.969-9.042v-.005a42.418 42.418 0 0 0-3.446-16.802 65.589 65.589 0 0 1-12.523 7.296c.307 3.087.469 6.267.469 9.511Z"/></svg>