<svg xmlns="http://www.w3.org/2000/svg" width="98" height="41" fill="none"><path fill="#fff" d="m27.558 27.332-5.407 4.453c-1.755-1.09-2.894-2.842-3.463-5.258l-6.925 5.163-6.735-3.553c-.807-.426-1.47-.663-1.992-.663-.712 0-1.328.616-1.328 1.374 0 .379.474 1.421.474 1.847 0 .663-.38.995-1.138.995C.332 31.69 0 31.264 0 30.458c0-.994.57-2.273 1.66-3.931l4.222-6.253c-3.13-2.89-4.791-5.637-5.028-8.242L.759 10.99c0-2.7 1.09-5.164 3.273-7.39C6.214 1.374 8.965.284 12.238.284c3.32 0 6.498 1.042 9.533 3.127 1.566-1.8 3.32-2.937 5.36-3.411l.095.095c-1.28 1.184-2.134 2.226-2.656 3.031-.712 1.185-1.091 2.464-1.044 3.885l.38 16.058c.047 2.226.521 3.79 1.423 4.642l1.517-1.137.712.758Zm-9.012-9.521V7.39l-.949-1.374h-.38L9.203 17.81h9.344ZM16.222 5.116c-1.803-.758-3.51-1.137-5.17-1.137-2.42 0-4.459.71-6.12 2.179-1.754 1.516-2.655 3.458-2.655 5.827 0 2.747 1.375 5.21 4.174 7.436l6.308-9.237c-.474-.757-1.186-1.136-2.087-1.136l-.759.094c-1.186.142-2.134.853-2.846 2.037 0-1.468.522-2.653 1.566-3.505.948-.758 2.182-1.137 3.747-1.137.996 0 1.897.095 2.703.284l1.139-1.705Zm2.514 19.8v-3.79H6.83l-1.755 2.559 9.676 4.452 3.985-3.22ZM40.285 27.664l-4.316 3.694c-1.518-1.326-3.747-2.51-6.735-3.6.806-.9 1.233-2.036 1.233-3.41v-18.9c0-.948-.522-1.943-1.565-3.032a8.036 8.036 0 0 1 3.13 1.516l.522-.048c1.47-1.373 3.13-2.179 4.885-2.416-1.565 1.137-2.324 2.558-2.324 4.311v19.943l3.463 2.179 1.138-.853.57.616ZM52.93 27.664l-4.316 3.694c-1.517-1.326-3.747-2.51-6.735-3.6.806-.9 1.233-2.036 1.233-3.41v-18.9c0-.948-.521-1.943-1.565-3.032a8.036 8.036 0 0 1 3.13 1.516l.522-.048c1.47-1.373 3.13-2.179 4.886-2.416C48.52 2.605 47.76 4.026 47.76 5.78v19.943l3.462 2.179 1.139-.853.569.616ZM71.6 27.948l-4.079 3.41c-2.04-1.089-3.036-2.794-3.036-5.115l-6.45 5.163h-.238c-2.229-2.084-3.367-4.121-3.367-6.063 0-2.937 1.565-5.78 4.696-8.574l-2.277-5.921.616.047c1.755.142 3.415-.474 4.886-1.847l6.735 2.226 1.328-1.042.095.19a12.441 12.441 0 0 0-1.612 3.647v12.41c.237.806.711 1.28 1.328 1.469l.853-.426.522.426Zm-7.115-8.905v-5.211l-6.877-2.558 1.992 5.4 4.885 2.369Zm.048 5.968v-5.116L59.6 17.432c-.901 1.61-1.376 3.174-1.376 4.642 0 2.132.902 4.121 2.751 5.969l3.558-3.032ZM92.54 27.995l-4.268 3.506c-2.277-1.469-2.894-2.843-2.894-5.685V14.495l-2.134-1.847-3.368 2.463v11.747l1.28 1.611-3.414 3.032-3.605-3.032L75.465 27V14.827c0-.806-.38-1.564-1.138-2.18l-.76.522-.473-.521 3.889-3.553c1.992 1.184 2.988 2.842 2.988 4.974 2.656-1.942 4.696-3.6 6.071-4.88l3.273 3.032 2.04-1.61.474.52c-.711.9-1.423 1.896-2.087 2.985v12.458c.237.569.712 1.09 1.328 1.516l.996-.568.475.473Z"/><circle cx="95.27" cy="19.677" r="2.73" fill="#37F230"/><path fill="#fff" d="M66.702 39.46c-1.111 0-1.917-.834-1.917-1.92 0-1.085.806-1.918 1.917-1.918.669 0 1.258.332 1.58.854l-.727.422c-.163-.285-.48-.454-.853-.454-.653 0-1.075.438-1.075 1.097s.422 1.096 1.075 1.096c.374 0 .695-.169.853-.453l.727.421c-.316.522-.906.854-1.58.854ZM71.859 39.46a1.901 1.901 0 0 1-1.917-1.92c0-1.085.858-1.918 1.917-1.918 1.058 0 1.917.833 1.917 1.919a1.901 1.901 0 0 1-1.917 1.918Zm0-.823c.6 0 1.074-.438 1.074-1.096 0-.66-.474-1.097-1.074-1.097-.6 0-1.075.438-1.075 1.097s.474 1.096 1.075 1.096ZM77.2 35.696c1.016 0 1.79.801 1.79 1.845 0 1.043-.774 1.845-1.79 1.845h-1.475v-3.69h1.474Zm0 2.878c.578 0 .979-.4.979-1.033 0-.633-.4-1.033-.98-1.033h-.632v2.066h.632ZM80.938 35.696h.843v3.69h-.843v-3.69ZM85.942 35.696h.843v3.69h-.632l-1.422-2.004v2.004h-.842v-3.69h.632l1.421 2.003v-2.003ZM88.733 37.33v.316c0 1.128.785 1.813 1.817 1.813 1.159 0 1.99-.854 1.99-1.913 0-1.07-.847-1.924-1.932-1.924-.706 0-1.3.348-1.612.843l.717.411c.152-.242.484-.432.9-.432.622 0 1.085.459 1.085 1.107 0 .627-.442 1.086-1.158 1.086-.49 0-.812-.216-.943-.57h.985v-.737h-1.849ZM92.54 40.163h-3.837v.767h3.838v-.767Z"/></svg>