<svg xmlns="http://www.w3.org/2000/svg" width="1533" height="640" fill="none"><path fill="#fff" d="M430.907 427.376 346.358 497c-27.442-17.036-45.242-44.441-54.142-82.216l-108.283 80.735-105.316-55.552c-12.609-6.666-22.992-10.369-31.15-10.369-11.125 0-20.767 9.629-20.767 21.48 0 5.925 7.417 22.22 7.417 28.886 0 10.37-5.934 15.555-17.8 15.555C5.192 495.519 0 488.853 0 476.261c0-15.555 8.9-35.553 25.958-61.477l66.008-97.771c-48.95-45.181-74.908-88.141-78.616-128.879l-1.483-16.295c0-42.219 17.058-80.735 51.175-115.547C97.157 21.48 140.174 4.444 191.35 4.444c51.916 0 101.608 16.295 149.074 48.885C364.899 25.183 392.341 7.407 424.232 0l1.484 1.481c-20.025 18.517-33.375 34.813-41.534 47.404-11.124 18.517-17.058 38.516-16.316 60.736l5.933 251.093c.742 34.812 8.159 59.255 22.25 72.587l23.733-17.776 11.125 11.851ZM289.991 278.498V115.547l-14.833-21.48h-5.934L143.883 278.498h146.108ZM253.649 79.994c-28.183-11.85-54.883-17.776-80.841-17.776-37.825 0-69.717 11.11-95.675 34.071C49.692 119.991 35.6 150.36 35.6 187.393c0 42.96 21.508 81.476 65.266 116.288l98.642-144.434c-7.417-11.851-18.542-17.776-32.633-17.776l-11.867 1.481c-18.542 2.222-33.375 13.333-44.5 31.85 0-22.961 8.158-41.479 24.475-54.811 14.833-11.851 34.117-17.776 58.592-17.776 15.575 0 29.666 1.481 42.274 4.444l17.8-26.665Zm39.309 309.607v-59.255H106.8l-27.442 39.997 151.3 69.624 62.3-50.366ZM629.917 432.56l-67.492 57.774c-23.733-20.739-58.591-39.256-105.316-56.292 12.608-14.073 19.283-31.85 19.283-53.33V85.179c0-14.814-8.158-30.368-24.475-47.404 18.542 4.444 34.859 12.592 48.95 23.702l8.159-.74c22.991-21.48 48.949-34.072 76.391-37.776-24.475 17.777-36.342 39.997-36.342 67.403v311.828l54.142 34.072 17.8-13.333 8.9 9.629ZM827.646 432.56l-67.492 57.774c-23.733-20.739-58.591-39.256-105.316-56.292 12.608-14.073 19.283-31.85 19.283-53.33V85.179c0-14.814-8.158-30.368-24.475-47.404 18.542 4.444 34.859 12.592 48.95 23.702l8.159-.74c22.991-21.48 48.949-34.072 76.391-37.776-24.475 17.777-36.341 39.997-36.341 67.403v311.828l54.141 34.072 17.8-13.333 8.9 9.629ZM1119.57 437.005l-63.79 53.329c-31.89-17.036-47.46-43.701-47.46-79.994l-100.87 80.735h-3.708c-34.858-32.591-52.658-64.44-52.658-94.808 0-45.923 24.475-90.364 73.425-134.064l-35.6-92.586 9.641.741c27.442 2.222 53.4-7.407 76.392-28.887l105.318 34.812 20.76-16.295 1.49 2.963c-11.87 18.517-20.03 37.034-25.22 57.033v194.059c3.71 12.592 11.13 19.999 20.77 22.962l13.35-6.667 8.16 6.667Zm-111.25-139.249V216.28l-107.545-39.997 31.15 84.438 76.395 37.035Zm.74 93.326v-79.994l-77.135-38.516c-14.091 25.184-21.508 49.626-21.508 72.588 0 33.33 14.092 64.439 43.017 93.326l55.626-47.404ZM1447 437.745l-66.75 54.811c-35.6-22.961-45.24-44.441-45.24-88.882V226.65l-33.38-28.887-52.65 38.516v183.69l20.02 25.183-53.4 47.404-56.37-47.404 20.77-22.961V231.835c0-12.592-5.93-24.443-17.8-34.072l-11.87 8.148-7.41-8.148 60.81-55.551c31.15 18.517 46.73 44.441 46.73 77.772 41.53-30.368 73.42-56.292 94.93-76.291l51.18 47.404 31.89-25.183 7.42 8.147c-11.13 14.073-22.25 29.628-32.64 46.663v194.801c3.71 8.888 11.13 17.035 20.77 23.702l15.57-8.889 7.42 7.407Z"/><circle cx="1489.68" cy="307.683" r="42.683" fill="#fff"/><path fill="#fff" d="M1042.97 617c-17.37 0-29.97-13.022-29.97-30s12.6-30 29.97-30c10.46 0 19.68 5.192 24.71 13.352l-11.37 6.593c-2.55-4.45-7.49-7.088-13.34-7.088-10.21 0-16.79 6.841-16.79 17.143s6.58 17.143 16.79 17.143c5.85 0 10.87-2.638 13.34-7.088l11.37 6.593c-4.94 8.16-14.17 13.352-24.71 13.352ZM1123.61 617c-16.55 0-29.98-13.022-29.98-30s13.43-30 29.98-30 29.97 13.022 29.97 30-13.42 30-29.97 30Zm0-12.857c9.39 0 16.8-6.841 16.8-17.143s-7.41-17.143-16.8-17.143-16.8 6.841-16.8 17.143 7.41 17.143 16.8 17.143ZM1207.11 558.154c15.9 0 28 12.527 28 28.846 0 16.319-12.1 28.846-28 28.846h-23.05v-57.692h23.05Zm0 45c9.06 0 15.32-6.264 15.32-16.154s-6.26-16.154-15.32-16.154h-9.88v32.308h9.88ZM1265.58 558.154h13.17v57.692h-13.17v-57.692ZM1343.83 558.154H1357v57.692h-9.88l-22.23-31.319v31.319h-13.18v-57.692h9.88l22.24 31.319v-31.319ZM1387.46 583.703v4.945c0 17.638 12.27 28.352 28.41 28.352 18.12 0 31.13-13.352 31.13-29.918 0-16.73-13.26-30.082-30.22-30.082-11.04 0-20.34 5.44-25.2 13.187l11.2 6.428c2.39-3.791 7.58-6.758 14.08-6.758 9.72 0 16.96 7.17 16.96 17.308 0 9.808-6.91 16.978-18.11 16.978-7.66 0-12.68-3.379-14.74-8.901h15.4v-11.539h-28.91ZM1447 628h-60v12h60v-12Z"/></svg>