<svg xmlns="http://www.w3.org/2000/svg" width="98" height="41" fill="none"><g fill="#fff" clip-path="url(#a)"><path d="m27.547 27.379-5.405 4.46c-1.755-1.091-2.893-2.847-3.462-5.267l-6.922 5.172-6.732-3.559c-.806-.427-1.47-.664-1.992-.664-.71 0-1.327.617-1.327 1.376 0 .38.474 1.424.474 1.85 0 .665-.38.997-1.138.997-.711 0-1.043-.427-1.043-1.233 0-.997.569-2.278 1.66-3.939l4.22-6.263c-3.13-2.895-4.79-5.647-5.027-8.257L.76 11.008c0-2.704 1.09-5.172 3.271-7.402C6.211 1.376 8.961.285 12.232.285c3.32 0 6.496 1.044 9.53 3.131C23.327 1.613 25.082.475 27.12 0l.095.095c-1.28 1.186-2.134 2.23-2.655 3.037-.711 1.186-1.09 2.467-1.043 3.89l.379 16.086c.047 2.23.521 3.796 1.422 4.65l1.517-1.138.712.759Zm-9.009-9.538V7.402l-.948-1.376h-.38L9.199 17.841h9.34ZM16.215 5.125c-1.802-.76-3.508-1.14-5.168-1.14-2.418 0-4.457.713-6.116 2.184-1.754 1.518-2.655 3.463-2.655 5.836 0 2.752 1.375 5.22 4.172 7.45l6.306-9.253c-.474-.76-1.185-1.139-2.086-1.139l-.759.095c-1.185.142-2.133.854-2.845 2.04 0-1.47.522-2.657 1.565-3.511.948-.76 2.181-1.139 3.746-1.139.995 0 1.896.095 2.702.285l1.138-1.708Zm2.513 19.834v-3.796h-11.9l-1.755 2.562 9.672 4.46 3.983-3.226ZM40.269 27.71l-4.315 3.702c-1.517-1.329-3.745-2.515-6.732-3.606.805-.902 1.232-2.04 1.232-3.417V5.457c0-.95-.521-1.946-1.564-3.037a8.025 8.025 0 0 1 3.129 1.518l.522-.047c1.47-1.376 3.129-2.183 4.883-2.42C35.859 2.61 35.1 4.033 35.1 5.789v19.976l3.46 2.183 1.139-.854.569.617ZM52.909 27.71l-4.315 3.702c-1.517-1.329-3.745-2.515-6.732-3.606.806-.902 1.232-2.04 1.232-3.417V5.457c0-.95-.521-1.946-1.564-3.037a8.025 8.025 0 0 1 3.129 1.518l.522-.047c1.47-1.376 3.129-2.183 4.883-2.42-1.565 1.139-2.323 2.562-2.323 4.318v19.976l3.46 2.183 1.139-.854.569.617ZM71.57 27.996l-4.077 3.416c-2.039-1.091-3.034-2.8-3.034-5.125L58.01 31.46h-.236c-2.229-2.087-3.367-4.128-3.367-6.073 0-2.942 1.565-5.79 4.694-8.589l-2.276-5.93.617.047c1.754.142 3.413-.475 4.883-1.851l6.733 2.23 1.327-1.044.095.19a12.469 12.469 0 0 0-1.612 3.654v12.432c.237.806.711 1.28 1.328 1.47l.853-.427.522.428Zm-7.111-8.921v-5.22l-6.875-2.562 1.991 5.41 4.884 2.372Zm.047 5.979v-5.125l-4.93-2.467c-.902 1.613-1.376 3.179-1.376 4.65 0 2.135.901 4.128 2.75 5.979l3.556-3.037ZM92.502 28.043l-4.267 3.511c-2.275-1.47-2.892-2.847-2.892-5.694V14.52l-2.134-1.85-3.365 2.467v11.767l1.28 1.614-3.414 3.036-3.604-3.036 1.328-1.471V14.852c0-.807-.38-1.566-1.138-2.183l-.759.522-.474-.522 3.888-3.559c1.991 1.187 2.987 2.848 2.987 4.983 2.655-1.946 4.694-3.607 6.069-4.888l3.271 3.037 2.04-1.613.474.522a30.056 30.056 0 0 0-2.087 2.99V26.62c.237.569.711 1.09 1.328 1.518l.995-.57.474.475ZM95.23 22.445a2.732 2.732 0 0 0 2.73-2.734 2.732 2.732 0 0 0-2.73-2.734 2.731 2.731 0 0 0-2.728 2.734 2.731 2.731 0 0 0 2.729 2.734ZM66.674 39.527c-1.11 0-1.916-.835-1.916-1.922 0-1.088.806-1.922 1.916-1.922.669 0 1.258.332 1.58.855l-.727.423c-.163-.285-.48-.454-.853-.454-.653 0-1.073.438-1.073 1.098 0 .66.42 1.098 1.073 1.098.374 0 .695-.17.853-.454l.727.422c-.316.523-.906.856-1.58.856ZM71.829 39.527a1.903 1.903 0 0 1-1.917-1.922c0-1.088.859-1.922 1.917-1.922s1.916.834 1.916 1.922a1.902 1.902 0 0 1-1.916 1.922Zm0-.824c.6 0 1.074-.438 1.074-1.098 0-.66-.474-1.098-1.074-1.098-.6 0-1.074.438-1.074 1.098 0 .66.474 1.098 1.074 1.098ZM77.167 35.757c1.016 0 1.79.802 1.79 1.848 0 1.045-.774 1.848-1.79 1.848h-1.474v-3.696h1.474Zm0 2.883c.579 0 .98-.402.98-1.035 0-.634-.401-1.035-.98-1.035h-.632v2.07h.632ZM80.904 35.757h.843v3.696h-.843v-3.696ZM85.907 35.757h.842v3.696h-.632l-1.42-2.007v2.007h-.844v-3.696h.632l1.422 2.006v-2.006ZM88.696 37.394v.316c0 1.13.784 1.817 1.816 1.817 1.159 0 1.99-.856 1.99-1.917a1.914 1.914 0 0 0-1.932-1.927c-.705 0-1.3.348-1.61.845l.715.411c.153-.242.485-.432.9-.432.622 0 1.085.459 1.085 1.108 0 .629-.442 1.088-1.158 1.088-.49 0-.81-.217-.942-.57h.984v-.74h-1.848ZM92.502 40.231h-3.835V41h3.835v-.769Z"/></g><defs><clipPath id="a"><path fill="#fff" d="M0 0h98v41H0z"/></clipPath></defs></svg>