<svg xmlns="http://www.w3.org/2000/svg" width="99" height="44" fill="none"><g fill="#000" clip-path="url(#a)"><path d="M3.595.443 3.397 0C2.75.041 1.31.775.585 1.66-.142 2.545.014 3.64.014 3.64c.104.738.677 1.528 1.57 1.65.894.124 1.689-.319 2.011-.86.323-.542.522-1.23 0-2.018-.417-.63-1.117-.853-1.415-.886.166-.278.68-.885 1.415-1.082Z"/><path fill-rule="evenodd" d="m25.162 34.335 5.645-4.692-.743-.799-1.585 1.198c-.94-.898-1.436-2.546-1.485-4.892L26.598 8.23c-.05-1.498.346-2.845 1.089-4.093.545-.849 1.436-1.947 2.773-3.195l-.099-.1c-2.13.5-3.961 1.697-5.596 3.594-3.169-2.196-6.486-3.294-9.953-3.294-2.463 0-4.644.597-6.522 1.809.165.565-.01 1.065-.256 1.479-.323.541-1.118.984-2.011.86a1.696 1.696 0 0 1-.314-.073c-1.92 2.192-2.88 4.593-2.88 7.206l.099 1.098c.247 2.745 1.98 5.64 5.249 8.685l-4.407 6.59c-1.14 1.746-1.734 3.094-1.734 4.142 0 .849.347 1.298 1.09 1.298.792 0 1.188-.35 1.188-1.048 0-.231-.131-.635-.258-1.026-.12-.369-.237-.727-.237-.92 0-.8.644-1.448 1.387-1.448.544 0 1.238.25 2.08.698l7.031 3.744 7.23-5.44c.594 2.545 1.782 4.392 3.615 5.54ZM21.398 8.628V19.61h-9.755l3.421-5.081c.258.131.545.234.845.265.68.07 1.406.067 2.016-.248 1.156-.535 1.499-2.083 1.499-2.083s-.564.9-1.499.97c-.746 0-1.328-.432-1.644-.712l3.73-5.54h.397l.99 1.447Zm-7.824-3.594c1.733 0 3.516.4 5.398 1.198L17.783 8.03l-2.426 3.544-.124.183c-.389-.278-.893-.533-1.448-.553-.965-.036-1.559.236-2.089.788-.463.483-.992 1.649-.992 1.649s.715-.942 1.522-.942c.959.035 1.185.477 1.708.96l.007.008-5.17 7.64c-2.922-2.345-4.358-4.94-4.358-7.836 0-2.496.941-4.542 2.773-6.14 1.733-1.547 3.863-2.296 6.388-2.296Zm8.022 18.07v3.993l-4.16 3.394L7.336 25.8l1.832-2.695h12.43Z" clip-rule="evenodd"/><path d="M8.034.443 7.834 0C7.19.041 5.75.775 5.024 1.66c-.726.885-.57 1.979-.57 1.979.09.647.543 1.335 1.256 1.577.171-.195.35-.39.536-.581A11.661 11.661 0 0 1 8.29 2.95a1.984 1.984 0 0 0-.256-.539c-.418-.63-1.118-.853-1.416-.886.166-.278.68-.885 1.416-1.082ZM44.158 29.98l-4.53 3.904c-1.592-1.401-3.932-2.653-7.068-3.804.846-.951 1.294-2.153 1.294-3.605V6.501c0-1.002-.547-2.053-1.643-3.204 1.245.3 2.34.85 3.286 1.602l.547-.05c1.544-1.452 3.286-2.303 5.128-2.554-1.643 1.202-2.44 2.704-2.44 4.556v21.076l3.634 2.303 1.195-.901.597.65ZM57.43 29.98l-4.53 3.904c-1.593-1.401-3.933-2.653-7.069-3.804.846-.951 1.294-2.153 1.294-3.605V6.501c0-1.002-.547-2.053-1.642-3.204a8.41 8.41 0 0 1 3.285 1.602l.548-.05c1.543-1.452 3.285-2.303 5.127-2.554C52.8 3.497 52.003 5 52.003 6.851v21.076l3.635 2.303 1.194-.901.598.65ZM77.023 30.28l-4.281 3.604c-2.14-1.151-3.186-2.953-3.186-5.406l-6.77 5.456h-.249c-2.34-2.202-3.534-4.355-3.534-6.408 0-3.103 1.643-6.107 4.928-9.06l-2.39-6.259.648.05c1.842.15 3.584-.5 5.127-1.952l7.069 2.353 1.394-1.101.1.2a13.186 13.186 0 0 0-1.693 3.855v13.116c.249.85.747 1.352 1.394 1.552l.896-.45.547.45Zm-7.467-9.412v-5.507l-7.218-2.703 2.09 5.707 5.128 2.503Zm.05 6.308v-5.407l-5.177-2.603c-.946 1.702-1.444 3.354-1.444 4.906 0 2.253.946 4.355 2.888 6.308l3.733-3.204ZM99 30.33l-4.48 3.705c-2.39-1.552-3.037-3.004-3.037-6.008V16.062l-2.24-1.952-3.534 2.603V29.13l1.344 1.702-3.584 3.204-3.784-3.204 1.394-1.552V16.413c0-.851-.398-1.652-1.194-2.303l-.797.55-.497-.55 4.081-3.755c2.09 1.252 3.136 3.004 3.136 5.257 2.788-2.053 4.928-3.805 6.372-5.156l3.435 3.204 2.14-1.703.499.551a31.73 31.73 0 0 0-2.191 3.154v13.166c.249.601.747 1.152 1.394 1.602l1.045-.6.498.5ZM71.882 42.445c-1.166 0-2.011-.88-2.011-2.027 0-1.148.845-2.028 2.011-2.028.702 0 1.321.351 1.659.903l-.763.445c-.172-.3-.503-.479-.896-.479-.685 0-1.127.462-1.127 1.159 0 .696.442 1.159 1.127 1.159.393 0 .73-.179.895-.48l.764.446c-.332.551-.951.902-1.659.902ZM77.294 42.445c-1.11 0-2.012-.88-2.012-2.027 0-1.148.902-2.028 2.012-2.028 1.111 0 2.012.88 2.012 2.028 0 1.147-.9 2.027-2.012 2.027Zm0-.868c.63 0 1.128-.463 1.128-1.16 0-.696-.497-1.158-1.128-1.158-.63 0-1.127.462-1.127 1.159 0 .696.497 1.159 1.127 1.159ZM82.899 38.468c1.067 0 1.88.847 1.88 1.95s-.813 1.95-1.88 1.95h-1.547v-3.9h1.547Zm0 3.042c.608 0 1.028-.424 1.028-1.092 0-.669-.42-1.092-1.028-1.092h-.663v2.184h.663ZM86.823 38.468h.884v3.9h-.884v-3.9ZM92.075 38.468h.884v3.9h-.663l-1.492-2.117v2.117h-.885v-3.9h.664l1.492 2.117v-2.117ZM95.004 40.195v.334c0 1.192.823 1.916 1.906 1.916 1.217 0 2.09-.902 2.09-2.022 0-1.13-.89-2.033-2.028-2.033-.741 0-1.366.368-1.692.891l.752.435c.16-.256.509-.457.945-.457.652 0 1.138.485 1.138 1.17 0 .663-.463 1.148-1.215 1.148-.514 0-.851-.229-.99-.602h1.034v-.78h-1.94ZM99 43.189h-4.027V44H99v-.811Z"/></g><defs><clipPath id="a"><path fill="#fff" d="M0 0h99v44H0z"/></clipPath></defs></svg>