<svg xmlns="http://www.w3.org/2000/svg" width="38" height="52" fill="none"><path fill="#000" d="M8.95 50.237c-1.118 0-1.93-.839-1.93-1.932s.812-1.932 1.93-1.932c.674 0 1.268.334 1.592.86l-.732.424c-.164-.286-.483-.456-.86-.456-.657 0-1.081.44-1.081 1.104 0 .663.424 1.104 1.082 1.104.376 0 .7-.17.859-.456l.732.424c-.318.526-.912.86-1.591.86ZM14.144 50.237a1.915 1.915 0 0 1-1.93-1.932c0-1.093.864-1.932 1.93-1.932 1.066 0 1.93.839 1.93 1.932a1.915 1.915 0 0 1-1.93 1.932Zm0-.828c.605 0 1.082-.44 1.082-1.104 0-.663-.477-1.104-1.082-1.104-.604 0-1.082.44-1.082 1.104 0 .663.478 1.104 1.082 1.104ZM19.523 46.447c1.023 0 1.803.807 1.803 1.858 0 1.051-.78 1.858-1.803 1.858h-1.485v-3.716h1.485Zm0 2.898c.583 0 .986-.403.986-1.04s-.403-1.04-.986-1.04h-.637v2.08h.637ZM23.288 46.447h.849v3.716h-.85v-3.716ZM28.328 46.447h.848v3.716h-.636l-1.432-2.017v2.017h-.849v-3.716h.637l1.432 2.017v-2.017ZM31.139 48.093v.318c0 1.136.79 1.826 1.83 1.826 1.166 0 2.004-.86 2.004-1.927a1.926 1.926 0 0 0-1.946-1.937c-.711 0-1.31.35-1.623.85l.721.413c.154-.244.488-.435.907-.435.626 0 1.093.462 1.093 1.115 0 .631-.446 1.093-1.167 1.093-.494 0-.817-.218-.95-.573H33v-.743H31.14ZM34.973 50.946h-3.864v.773h3.864v-.773ZM4.435.542 4.19 0C3.394.05 1.617.95.72 2.034-.175 3.118.017 4.457.017 4.457c.128.904.835 1.872 1.937 2.023 1.103.15 2.083-.392 2.48-1.055.399-.663.644-1.507 0-2.471-.514-.772-1.377-1.045-1.745-1.085.204-.342.84-1.085 1.746-1.327Z"/><path fill="#000" fill-rule="evenodd" d="M31.037 42.058 38 36.31l-.916-.978-1.955 1.467c-1.16-1.1-1.771-3.118-1.832-5.992l-.489-20.727c-.061-1.835.428-3.485 1.344-5.014.672-1.04 1.771-2.385 3.42-3.913l-.122-.122c-2.626.61-4.886 2.078-6.902 4.402-3.91-2.69-8.001-4.036-12.277-4.036-3.039 0-5.728.731-8.046 2.216.204.692-.011 1.305-.316 1.812-.398.663-1.378 1.205-2.48 1.055a2.104 2.104 0 0 1-.387-.09c-2.369 2.684-3.553 5.626-3.553 8.826l.122 1.345c.306 3.363 2.444 6.91 6.475 10.639L4.65 35.27c-1.405 2.14-2.138 3.792-2.138 5.076 0 1.04.427 1.59 1.344 1.59.977 0 1.466-.429 1.466-1.285 0-.283-.162-.777-.32-1.256-.147-.452-.291-.89-.291-1.128 0-.979.794-1.773 1.71-1.773.672 0 1.527.305 2.565.856l8.674 4.585 8.918-6.664c.733 3.118 2.199 5.38 4.459 6.787Zm-4.642-31.49V24.02H14.362l4.22-6.224c.317.162.671.287 1.042.325.84.086 1.734.082 2.486-.303 1.427-.656 1.85-2.552 1.85-2.552s-.696 1.103-1.85 1.19c-.92 0-1.638-.531-2.027-.874l4.601-6.786h.489l1.222 1.773Zm-9.651-4.401c2.138 0 4.337.489 6.658 1.467l-1.466 2.201-2.993 4.341-.153.224c-.48-.34-1.101-.653-1.787-.678-1.19-.043-1.922.29-2.576.966-.571.591-1.224 2.02-1.224 2.02s.882-1.154 1.878-1.154c1.182.043 1.462.584 2.107 1.176l.008.01-6.377 9.36c-3.604-2.875-5.375-6.054-5.375-9.6 0-3.057 1.16-5.564 3.42-7.52 2.138-1.896 4.765-2.813 7.88-2.813ZM26.639 28.3v4.892l-5.13 4.158-12.461-5.748 2.26-3.302h15.33Z" clip-rule="evenodd"/><path fill="#000" d="M9.91.542 9.663 0c-.796.05-2.572.95-3.468 2.034-.896 1.084-.704 2.423-.704 2.423.112.793.67 1.636 1.55 1.932.211-.24.432-.476.662-.712a14.361 14.361 0 0 1 2.521-2.064 2.421 2.421 0 0 0-.316-.66C9.395 2.183 8.531 1.91 8.164 1.87c.204-.342.839-1.085 1.745-1.327Z"/></svg>