<svg xmlns="http://www.w3.org/2000/svg" width="662" height="63" fill="none"><g fill="#fff" clip-path="url(#a)"><path d="m0 24.342 4.216-8.04h.148l-.482 2.139h16.344l.74-2.14h.185v8.041h-.184l-.112-.553c-.74-3.652-1.885-4.944-6.656-4.944h-.998L6.065 43.78l2.662.738-.036.184H.33l.074-.184 3.106-.74 7.174-24.93h-.997c-4.772 0-6.509 1.364-9.135 4.943l-.406.552H0Zm18.112 20.359 7.322-25.448-2.22-.628v-.184l5.436-1.733h.037l-7.1 24.563h.297l2.55-5.127c3.292-6.64 5.474-10.622 7.804-10.622 1.701 0 3.18 2.14 3.18 6.234 0 8.999-5.104 13.387-8.765 13.387-1.293 0-1.775-.553-1.775-1.29 0-.59.296-1.034.408-1.18.776.294 2.182.59 3.402.59 2.699 0 4.474-1.587 4.474-7.745 0-5.864-.924-7.856-2.219-7.856-1.368 0-2.922 2.212-6.139 8.666L20.626 44.7h-2.514Zm18.538-5.348c0-7.045 5.953-13.83 10.946-13.83 1.664 0 2.367.847 2.367 1.88 0 2.14-3.032 4.869-10.428 6.934a16.4 16.4 0 0 0-.408 3.614c0 3.762 1.516 5.238 3.588 5.238 1.811 0 3.476-1.402 5.435-5.385h.296c-2.291 4.757-4.807 7.34-7.58 7.34-2.477 0-4.216-1.991-4.216-5.79Zm2.995-5.421c6.064-1.697 8.099-4.058 8.099-5.902 0-1.106-.703-1.66-1.849-1.66-2.515 0-5.177 3.321-6.25 7.562Zm10.318 27.864v-.4l5.595-1.607V6.661l-5.595-1.605v-.401h22.063c13.03 0 19.666 5.698 19.666 15.088 0 10.915-8.794 15.73-19.266 15.73-2.718 0-4.316-.321-5.037-.483v-.642a20.96 20.96 0 0 0 3.757.323c8.553 0 13.91-4.575 13.91-14.206 0-10.274-6.075-14.927-14.63-14.927h-8.712V59.79l6.394 1.604v.4H49.963Zm45.355 0v-.4l5.596-1.607V6.661l-5.596-1.605v-.401h17.348v.4l-5.597 1.606v23.916h31.976V6.66l-5.595-1.605v-.401h17.347v.4l-5.596 1.606v53.128l5.596 1.606v.4H133.45v-.4l5.595-1.606V31.54h-31.976v28.25l5.596 1.605v.4H95.318ZM184.082 63c-16.467 0-28.859-10.594-28.859-28.971 0-18.7 12.71-30.579 30.058-30.579 16.468 0 28.778 10.755 28.778 29.053 0 18.779-12.63 30.497-29.977 30.497Zm-22.064-31.621c0 19.743 10.952 30.498 23.982 30.498 11.271 0 21.264-8.105 21.264-26.887 0-19.662-11.032-30.415-24.062-30.415-11.271 0-21.184 8.104-21.184 26.804Zm68.919 30.417v-.4l6.955-1.607V5.537h-2.318c-11.512 0-14.87 2.89-18.547 10.755l-.559 1.204h-.4L220.624 0h.4l.32 4.655h39.25l.32-4.655h.4l4.557 17.495h-.401l-.558-1.203c-3.678-7.866-7.035-10.754-18.547-10.754h-2.319V59.79l6.956 1.604v.4h-20.065ZM296.731 63c-16.467 0-28.859-10.594-28.859-28.971 0-18.7 12.711-30.579 30.058-30.579 16.468 0 28.778 10.755 28.778 29.053 0 18.779-12.63 30.497-29.977 30.497Zm-22.064-31.621c0 19.743 10.952 30.498 23.982 30.498 11.272 0 21.264-8.105 21.264-26.887 0-19.662-11.032-30.415-24.062-30.415-11.271 0-21.184 8.104-21.184 26.804ZM364.004 63c-19.985 0-31.337-10.433-31.337-28.732 0-19.34 12.95-30.736 31.097-30.736 5.756 0 11.271 1.284 13.829 1.926l.32-5.458h.401l3.756 17.495h-.399c-3.597-7.703-10.952-12.84-20.705-12.76-11.671.08-21.184 7.384-21.184 26.404 0 19.903 9.593 30.898 23.822 30.898 4.957 0 9.433-1.524 11.831-2.89v-19.02l-9.273-1.605v-.4h21.024v.4l-5.755 1.605v18.54h3.917v.4C378.632 61.154 372.158 63 364.004 63Zm69.601-.722c-3.117 0-4.955-2.327-8.873-9.952l-9.993-19.502H400.91V59.79l5.596 1.606v.4h-17.347v-.4l5.595-1.606V6.661l-5.595-1.605v-.401h22.063c13.03 0 19.106 5.536 19.106 13.082 0 7.463-5.756 11.476-11.911 13.08v.08l12.87 20.948c3.837 6.18 5.755 7.463 8.394 7.463 1.279 0 2.478-.4 3.677-.803v.562l-2.478 1.044c-2.877 1.204-5.115 2.167-7.275 2.167ZM400.91 31.86h10.232c7.435 0 12.711-5.297 12.711-13.162 0-8.185-5.436-13.161-12.711-13.161H400.91V31.86Z"/><path d="M442.101 61.796v-.4l3.996-1.607L468.4 3.45h.08l23.742 56.34 3.998 1.605v.4h-16.308v-.4l5.596-1.606-9.034-21.668H455.85c-6.955 18.539-5.275 21.428 2.478 23.033l1.199.242v.4h-17.426Zm14.069-24.638h19.905L465.763 12.44l-8.634 22.23-.959 2.488Zm40.486 24.638v-.4l5.596-1.607V6.661l-5.596-1.605v-.401h22.063c13.031 0 19.665 5.698 19.665 15.088 0 10.915-8.792 15.73-19.264 15.73-2.719 0-4.318-.321-5.037-.483v-.642a20.97 20.97 0 0 0 3.757.323c8.554 0 13.91-4.575 13.91-14.206 0-10.274-6.076-14.927-14.63-14.927h-8.712V59.79l6.394 1.604v.4h-18.146Zm45.357 0v-.4l5.596-1.607V6.661l-5.596-1.605v-.401h17.347v.4l-5.597 1.606v23.916h31.976V6.66l-5.595-1.605v-.401h17.346v.4l-5.595 1.606v53.128l5.595 1.606v.4h-17.346v-.4l5.595-1.606V31.54h-31.976v28.25l5.597 1.605v.4h-17.347Zm71.735 0v-.4l6.875-1.607V34.11L601.518 6.66l-3.998-1.605v-.401h16.948v.4l-5.597 1.606 17.508 25.601 4.237-5.858c12.71-17.657 11.351-19.984 4.156-21.187l-.959-.161v-.401h16.307v.4l-3.996 1.606-19.346 26.725V59.79l6.875 1.606v.4h-19.905Zm42.222-12.891c3.468 0 6.03 2.618 6.03 6.596 0 3.775-2.833 7.199-6.46 7.199-3.469 0-6.031-2.67-6.031-6.671 0-3.7 2.834-7.124 6.461-7.124Zm-6.052 7.124c0 3.7 2.357 6.217 5.622 6.217 3.4 0 6.074-3.146 6.074-6.745 0-3.751-2.357-6.167-5.644-6.167-3.424 0-6.052 3.17-6.052 6.695Zm1.813 3.322.023-.15.635-.202 1.7-6.62-.522-.202v-.126h2.743c2.131 0 2.88.68 2.88 1.334 0 .782-1.066 1.184-1.996 1.385v.024l.317 1.16c.522 1.938.793 2.39 1.225 2.39.227 0 .386-.126.725-.654h.136c-.612.981-1.337 1.787-2.176 1.787-.838 0-1.088-1.057-1.315-3.071l-.068-.578h-.953l-.837 3.17.521.203-.023.15h-3.015Zm3.424-3.775h.43c1.02 0 1.655-.831 1.655-1.864 0-.906-.454-1.434-1.066-1.434h-.182l-.837 3.298Z"/></g><defs><clipPath id="a"><path fill="#fff" d="M0 0h662v63H0z"/></clipPath></defs></svg>