<svg xmlns="http://www.w3.org/2000/svg" width="158" height="124" fill="none"><g fill="#1A1A1A" clip-path="url(#a)"><path fill-rule="evenodd" d="M79 56.364h9.322c9.638 0 14.841 11.295 8.566 18.61l-9.13 10.637a25.365 25.365 0 0 0 9.333 15.976 25.416 25.416 0 0 0 17.711 5.4 25.41 25.41 0 0 0 16.674-8.045 25.357 25.357 0 0 0 6.774-17.215c0-2.242.892-4.392 2.479-5.978a8.472 8.472 0 0 1 11.971 0 8.451 8.451 0 0 1 2.479 5.978 42.24 42.24 0 0 1-7.989 24.718 42.324 42.324 0 0 1-20.95 15.386 42.368 42.368 0 0 1-26.002.246A42.317 42.317 0 0 1 79 107.091a42.317 42.317 0 0 1-21.238 14.986 42.369 42.369 0 0 1-26.002-.246 42.323 42.323 0 0 1-20.95-15.386 42.242 42.242 0 0 1-7.988-24.718A8.45 8.45 0 0 1 5.3 75.75a8.47 8.47 0 0 1 11.97 0 8.45 8.45 0 0 1 2.48 5.978 25.347 25.347 0 0 0 6.747 17.257 25.416 25.416 0 0 0 34.432 2.648 25.36 25.36 0 0 0 9.312-16.021l-9.13-10.636c-6.275-7.316-1.072-18.611 8.577-18.611H79Z" clip-rule="evenodd"/><path d="M118.5 33.818c9.349 0 16.929-7.57 16.929-16.909C135.429 7.57 127.849 0 118.5 0c-9.349 0-16.928 7.57-16.928 16.91 0 9.338 7.579 16.908 16.928 16.908ZM39.5 33.818c9.35 0 16.929-7.57 16.929-16.909C56.429 7.57 48.849 0 39.5 0c-9.35 0-16.928 7.57-16.928 16.91 0 9.338 7.579 16.908 16.928 16.908Z"/></g><defs><clipPath id="a"><path fill="#fff" d="M0 0h158v124H0z"/></clipPath></defs></svg>