<svg xmlns="http://www.w3.org/2000/svg" width="38" height="52" fill="none"><g fill="#fff" clip-path="url(#a)"><path d="M8.95 50.51c-1.118 0-1.93-.843-1.93-1.942 0-1.1.812-1.943 1.93-1.943.674 0 1.268.336 1.592.865l-.732.427c-.164-.288-.483-.46-.86-.46-.657 0-1.081.444-1.081 1.11 0 .668.424 1.111 1.082 1.111.376 0 .7-.17.86-.459l.731.427c-.318.528-.912.865-1.591.865ZM14.144 50.51a1.92 1.92 0 0 1-1.93-1.942c0-1.1.864-1.943 1.93-1.943a1.92 1.92 0 0 1 1.93 1.943 1.92 1.92 0 0 1-1.93 1.943Zm0-.832c.605 0 1.082-.443 1.082-1.11s-.477-1.11-1.082-1.11c-.604 0-1.082.443-1.082 1.11s.478 1.11 1.082 1.11ZM19.523 46.7c1.023 0 1.803.811 1.803 1.868s-.78 1.868-1.803 1.868h-1.485V46.7h1.485Zm0 2.914c.583 0 .986-.406.986-1.046s-.403-1.046-.986-1.046h-.637v2.092h.637ZM23.288 46.7h.849v3.736h-.849V46.7ZM28.328 46.7h.848v3.736h-.636l-1.432-2.028v2.028h-.849V46.7h.637l1.432 2.028V46.7ZM31.138 48.354v.32c0 1.143.79 1.837 1.83 1.837 1.167 0 2.005-.865 2.005-1.938a1.931 1.931 0 0 0-1.947-1.948c-.71 0-1.31.352-1.623.854l.722.416c.154-.245.488-.437.907-.437.626 0 1.092.464 1.092 1.12 0 .636-.445 1.1-1.167 1.1-.493 0-.816-.219-.949-.576H33v-.748h-1.862ZM34.973 51.223h-3.864V52h3.864v-.777ZM4.435.545 4.19 0C3.394.05 1.617.955.72 2.045-.175 3.135.017 4.482.017 4.482c.128.908.835 1.881 1.937 2.033 1.103.151 2.083-.394 2.48-1.06.399-.667.644-1.516 0-2.485-.514-.776-1.377-1.05-1.745-1.091.204-.344.84-1.091 1.746-1.334Z"/><path fill-rule="evenodd" d="M31.037 42.286 38 36.508l-.916-.984L35.129 37c-1.16-1.106-1.771-3.135-1.832-6.024l-.489-20.84c-.061-1.845.428-3.505 1.344-5.041.672-1.046 1.771-2.398 3.42-3.935l-.122-.123c-2.626.615-4.886 2.09-6.902 4.426-3.91-2.705-8.001-4.057-12.277-4.057-3.039 0-5.728.735-8.046 2.228.204.695-.011 1.312-.316 1.821-.398.667-1.378 1.212-2.48 1.061a2.09 2.09 0 0 1-.387-.091c-2.369 2.7-3.553 5.657-3.553 8.875l.122 1.352c.306 3.381 2.444 6.947 6.475 10.697L4.65 35.463c-1.405 2.151-2.138 3.811-2.138 5.102 0 1.045.427 1.599 1.344 1.599.977 0 1.466-.43 1.466-1.291 0-.285-.162-.782-.32-1.264-.147-.454-.291-.895-.291-1.134 0-.984.794-1.783 1.71-1.783.672 0 1.527.307 2.565.86l8.674 4.611 8.918-6.7c.733 3.135 2.199 5.41 4.459 6.823Zm-4.642-31.66v13.525H14.362l4.22-6.258c.317.162.671.289 1.042.327.84.086 1.734.082 2.486-.305 1.427-.66 1.85-2.566 1.85-2.566s-.696 1.109-1.85 1.196c-.92 0-1.638-.534-2.027-.878l4.601-6.823h.489l1.222 1.782ZM16.744 6.2c2.138 0 4.337.492 6.658 1.476l-1.466 2.213-2.993 4.364-.153.225c-.48-.342-1.101-.656-1.787-.681-1.19-.043-1.922.291-2.576.971-.571.594-1.224 2.03-1.224 2.03s.882-1.16 1.878-1.16c1.182.044 1.462.588 2.107 1.182l.008.01-6.377 9.411c-3.604-2.89-5.375-6.086-5.375-9.651 0-3.074 1.16-5.595 3.42-7.562C11.002 7.122 13.63 6.2 16.744 6.2Zm9.895 22.254v4.918l-5.131 4.18-12.46-5.778 2.26-3.32h15.33Z" clip-rule="evenodd"/><path d="M9.91.545 9.663 0c-.796.05-2.572.955-3.468 2.045-.896 1.09-.704 2.437-.704 2.437.112.797.67 1.644 1.55 1.942.211-.24.432-.48.662-.716a14.378 14.378 0 0 1 2.521-2.075 2.441 2.441 0 0 0-.316-.663c-.514-.776-1.378-1.05-1.745-1.091.204-.344.839-1.091 1.745-1.334Z"/></g><defs><clipPath id="a"><path fill="#fff" d="M0 0h38v52H0z"/></clipPath></defs></svg>