<svg xmlns="http://www.w3.org/2000/svg" width="42" height="42" fill="none"><path fill="#fff" d="M21 0C9.42 0 0 9.42 0 21s9.42 21 21 21 21-9.42 21-21S32.58 0 21 0Zm0 40.21C10.409 40.21 1.791 31.593 1.791 21 1.791 10.409 10.41 1.79 21 1.79S40.209 10.407 40.209 21c0 10.591-8.616 19.21-19.209 19.21Z"/><path fill="#fff" d="M20.998 4.216c-9.248 0-16.773 7.532-16.773 16.788 0 1.663.247 3.328.735 4.953l1.714-.515c-.35-1.166-.523-2.354-.593-3.545h2.18v-1.79H6.06C6.508 12.553 12.556 6.5 20.101 6.05v2.404h1.79V6.05c7.554.45 13.607 6.504 14.058 14.058h-2.2v1.79h2.18c-.072 1.191-.246 2.379-.595 3.546l1.715.514a17.3 17.3 0 0 0 .735-4.953c0-9.256-7.531-16.788-16.788-16.788h.002Z"/><path fill="#fff" d="m28.073 12.661-5.73 5.73A2.909 2.909 0 0 0 21 18.052 2.95 2.95 0 0 0 18.055 21 2.95 2.95 0 0 0 21 23.948 2.95 2.95 0 0 0 23.946 21c0-.486-.129-.938-.338-1.34l5.73-5.73-1.267-1.266.002-.003Z"/></svg>